<svg width="44" height="44" viewBox="0 0 44 44" fill="none" xmlns="http://www.w3.org/2000/svg">
<path d="M33.423 19.6307C34.3577 19.6307 35.1153 18.873 35.1153 17.9384C35.1153 17.0038 34.3577 16.2461 33.423 16.2461C32.4884 16.2461 31.7307 17.0038 31.7307 17.9384C31.7307 18.873 32.4884 19.6307 33.423 19.6307Z" fill="#4586E8"/>
<path d="M37.4 3.46923H34.6923V1.35385C34.6923 0.592308 34.1 0 33.4231 0C32.7462 0 32.0692 0.592308 32.0692 1.35385V3.55385H23.2692V1.35385C23.2692 0.592308 22.6769 0 21.9154 0C21.1538 0 20.5615 0.592308 20.5615 1.35385V3.55385H11.8462V1.35385C11.8462 0.592308 11.2538 0 10.4923 0C9.73077 0 9.13846 0.592308 9.13846 1.35385V3.55385H6.6C2.96154 3.46923 0 6.43077 0 10.0692V37.4C0 41.0385 2.96154 44 6.6 44H19.9692C20.7308 44 21.3231 43.4077 21.3231 42.6462C21.3231 41.8846 20.7308 41.2923 19.9692 41.2923H6.6C4.4 41.2923 2.70769 39.5154 2.70769 37.4V10.0692C2.70769 7.86923 4.48462 6.17692 6.6 6.17692H9.22308V8.37692C9.22308 9.13846 9.81538 9.73077 10.5769 9.73077C11.3385 9.73077 11.8462 9.05385 11.8462 8.37692V6.17692H20.5615V8.37692C20.5615 9.13846 21.1538 9.73077 21.9154 9.73077C22.6769 9.73077 23.2692 9.13846 23.2692 8.37692V6.17692H32.0692V8.37692C32.0692 9.13846 32.6615 9.73077 33.4231 9.73077C34.1846 9.73077 34.6923 9.05385 34.6923 8.37692V6.17692H37.4C39.6 6.17692 41.2923 7.95385 41.2923 10.0692V20.0538C41.2923 20.8154 41.8846 21.4077 42.6462 21.4077C43.4077 21.4077 44 20.8154 44 20.0538V10.0692C44 6.43077 41.0385 3.46923 37.4 3.46923Z" fill="#4586E8"/>
<path d="M33.8462 23.6079C28.2616 23.6079 23.6924 28.1771 23.6924 33.7618C23.6924 39.3464 28.2616 43.9156 33.8462 43.9156C39.4308 43.9156 44.0001 39.3464 44.0001 33.7618C44.0001 28.1771 39.4308 23.6079 33.8462 23.6079ZM33.8462 41.3771C29.7001 41.3771 26.3155 37.9925 26.3155 33.8464C26.3155 29.7002 29.7001 26.3156 33.8462 26.3156C37.9924 26.3156 41.377 29.7002 41.377 33.8464C41.377 37.9925 37.9924 41.3771 33.8462 41.3771Z" fill="#4586E8"/>
<path d="M36.3847 32.4925H35.2001V30.2079C35.2001 29.4463 34.6078 28.854 33.8463 28.854C33.0847 28.854 32.4924 29.4463 32.4924 30.2079V33.8463C32.4924 34.6079 33.0847 35.2002 33.8463 35.2002H36.3847C37.1463 35.2002 37.7386 34.6079 37.7386 33.8463C37.7386 33.0848 37.0617 32.4925 36.3847 32.4925Z" fill="#4586E8"/>
<path d="M25.8078 19.6307C26.7424 19.6307 27.5001 18.873 27.5001 17.9384C27.5001 17.0038 26.7424 16.2461 25.8078 16.2461C24.8731 16.2461 24.1155 17.0038 24.1155 17.9384C24.1155 18.873 24.8731 19.6307 25.8078 19.6307Z" fill="#4586E8"/>
<path d="M18.1076 27.2459C19.0422 27.2459 19.7999 26.4883 19.7999 25.5536C19.7999 24.619 19.0422 23.8613 18.1076 23.8613C17.173 23.8613 16.4153 24.619 16.4153 25.5536C16.4153 26.4883 17.173 27.2459 18.1076 27.2459Z" fill="#4586E8"/>
<path d="M10.4924 19.6307C11.427 19.6307 12.1847 18.873 12.1847 17.9384C12.1847 17.0038 11.427 16.2461 10.4924 16.2461C9.55772 16.2461 8.80005 17.0038 8.80005 17.9384C8.80005 18.873 9.55772 19.6307 10.4924 19.6307Z" fill="#4586E8"/>
<path d="M10.4924 27.2459C11.427 27.2459 12.1847 26.4883 12.1847 25.5536C12.1847 24.619 11.427 23.8613 10.4924 23.8613C9.55772 23.8613 8.80005 24.619 8.80005 25.5536C8.80005 26.4883 9.55772 27.2459 10.4924 27.2459Z" fill="#4586E8"/>
<path d="M10.4924 34.9461C11.427 34.9461 12.1847 34.1885 12.1847 33.2538C12.1847 32.3192 11.427 31.5615 10.4924 31.5615C9.55772 31.5615 8.80005 32.3192 8.80005 33.2538C8.80005 34.1885 9.55772 34.9461 10.4924 34.9461Z" fill="#4586E8"/>
<path d="M18.1076 34.9461C19.0422 34.9461 19.7999 34.1885 19.7999 33.2538C19.7999 32.3192 19.0422 31.5615 18.1076 31.5615C17.173 31.5615 16.4153 32.3192 16.4153 33.2538C16.4153 34.1885 17.173 34.9461 18.1076 34.9461Z" fill="#4586E8"/>
<path d="M18.1076 19.6307C19.0422 19.6307 19.7999 18.873 19.7999 17.9384C19.7999 17.0038 19.0422 16.2461 18.1076 16.2461C17.173 16.2461 16.4153 17.0038 16.4153 17.9384C16.4153 18.873 17.173 19.6307 18.1076 19.6307Z" fill="#4586E8"/>
</svg>
