<svg width="44" height="38" viewBox="0 0 44 38" fill="none" xmlns="http://www.w3.org/2000/svg">
<path fill-rule="evenodd" clip-rule="evenodd" d="M35.363 4.60851L34.8741 3.15319C34.2222 1.29362 32.3481 0 30.3111 0H20.9407C18.9037 0 17.1111 1.21277 16.3778 3.07234L15.8074 4.68936C15.4815 5.49787 14.6667 6.06383 13.7704 6.06383H6.6C2.93333 6.06383 0 8.89362 0 12.3702V31.6936C0 35.1702 2.93333 38 6.6 38H37.4C41.0667 38 44 35.1702 44 31.6936C44 30.966 43.4296 30.4 42.6963 30.4C41.963 30.4 41.3926 30.966 41.3926 31.6936C41.3926 33.7957 39.6 35.4936 37.4815 35.4936H10.5926V19.0809C10.5926 18.3532 10.0222 17.7872 9.28889 17.7872C8.55556 17.7872 7.98519 18.3532 7.98519 19.0809V35.4128H6.6C4.48148 35.4128 2.68889 33.7149 2.68889 31.6128V12.3702C2.68889 10.2681 4.48148 8.57021 6.6 8.57021H13.7704C15.8074 8.57021 17.6 7.35745 18.3333 5.49787L18.9037 3.88085C19.2296 3.07234 20.0444 2.50638 20.9407 2.50638H30.3111C31.2074 2.50638 32.0222 3.07234 32.3481 3.88085L32.837 5.33617C33.4889 7.19574 35.2815 8.40851 37.3185 8.48936C39.5185 8.48936 41.3111 10.1872 41.3111 12.2894V23.2043C41.3111 23.9319 41.8815 24.4979 42.6148 24.4979C43.3481 24.4979 43.9185 23.9319 43.9185 23.2043V12.3702C43.9185 8.97447 40.9852 6.14468 37.4815 6.06383C36.5037 6.06383 35.6889 5.49787 35.363 4.60851ZM25.7482 11.0767C19.963 11.0767 15.2371 15.6044 15.2371 21.1831C15.2371 26.7618 19.963 31.2895 25.7482 31.2895C31.5334 31.2895 36.2593 26.7618 36.2593 21.1831C36.2593 15.6044 31.5334 11.0767 25.7482 11.0767ZM25.7482 28.7022C21.4297 28.7022 17.9259 25.3065 17.9259 21.1831C17.9259 17.0597 21.4297 13.664 25.7482 13.664C30.0667 13.664 33.5704 17.0597 33.5704 21.1831C33.5704 25.3065 30.0667 28.7022 25.7482 28.7022ZM7.90356 13.2594C7.90356 12.5317 8.47394 11.9658 9.20727 11.9658C9.9406 11.9658 10.511 12.5317 10.511 13.2594C10.511 13.9871 9.9406 14.553 9.20727 14.553C8.47394 14.553 7.90356 13.9871 7.90356 13.2594Z" fill="#4586E8"/>
</svg>
