<svg width="32" height="32" viewBox="0 0 32 32" fill="none" xmlns="http://www.w3.org/2000/svg">
<g clip-path="url(#clip0)">
<path d="M8.66658 25.3333H5.99992C5.63192 25.3333 5.33325 25.0347 5.33325 24.6667C5.33325 24.2987 5.63192 24 5.99992 24H8.66658C9.03458 24 9.33325 24.2987 9.33325 24.6667C9.33325 25.0347 9.03458 25.3333 8.66658 25.3333Z" fill="#343434"/>
<path d="M30.3333 25.332H28.6667C28.2987 25.332 28 25.0334 28 24.6654C28 24.2974 28.2987 23.9987 28.6667 23.9987H29.78L30.6787 19.2094C30.6667 16.7587 28.5733 14.6654 26 14.6654H21.6227L19.5013 23.9987H23.3333C23.7013 23.9987 24 24.2974 24 24.6654C24 25.0334 23.7013 25.332 23.3333 25.332H18.6667C18.464 25.332 18.272 25.24 18.1453 25.0814C18.0187 24.924 17.9707 24.716 18.016 24.5187L20.44 13.852C20.5093 13.5467 20.7787 13.332 21.0907 13.332H26C29.308 13.332 32 16.024 32 19.332L30.988 24.788C30.9293 25.104 30.6547 25.332 30.3333 25.332Z" fill="#343434"/>
<path d="M26.0001 27.9987C24.1627 27.9987 22.6667 26.504 22.6667 24.6654C22.6667 22.8267 24.1627 21.332 26.0001 21.332C27.8374 21.332 29.3334 22.8267 29.3334 24.6654C29.3334 26.504 27.8374 27.9987 26.0001 27.9987ZM26.0001 22.6654C24.8974 22.6654 24.0001 23.5627 24.0001 24.6654C24.0001 25.768 24.8974 26.6653 26.0001 26.6653C27.1027 26.6653 28.0001 25.768 28.0001 24.6654C28.0001 23.5627 27.1027 22.6654 26.0001 22.6654Z" fill="#343434"/>
<path d="M11.3333 27.9987C9.496 27.9987 8 26.504 8 24.6654C8 22.8267 9.496 21.332 11.3333 21.332C13.1707 21.332 14.6667 22.8267 14.6667 24.6654C14.6667 26.504 13.1707 27.9987 11.3333 27.9987ZM11.3333 22.6654C10.2307 22.6654 9.33333 23.5627 9.33333 24.6654C9.33333 25.768 10.2307 26.6653 11.3333 26.6653C12.436 26.6653 13.3333 25.768 13.3333 24.6654C13.3333 23.5627 12.436 22.6654 11.3333 22.6654Z" fill="#343434"/>
<path d="M8.66675 13.3333H3.33341C2.96541 13.3333 2.66675 13.0347 2.66675 12.6667C2.66675 12.2987 2.96541 12 3.33341 12H8.66675C9.03475 12 9.33341 12.2987 9.33341 12.6667C9.33341 13.0347 9.03475 13.3333 8.66675 13.3333Z" fill="#343434"/>
<path d="M8.66658 17.3333H1.99992C1.63192 17.3333 1.33325 17.0347 1.33325 16.6667C1.33325 16.2987 1.63192 16 1.99992 16H8.66658C9.03458 16 9.33325 16.2987 9.33325 16.6667C9.33325 17.0347 9.03458 17.3333 8.66658 17.3333Z" fill="#343434"/>
<path d="M8.66667 21.3333H0.666667C0.298667 21.3333 0 21.0347 0 20.6667C0 20.2987 0.298667 20 0.666667 20H8.66667C9.03467 20 9.33333 20.2987 9.33333 20.6667C9.33333 21.0347 9.03467 21.3333 8.66667 21.3333Z" fill="#343434"/>
<path d="M18.6666 25.332H13.9999C13.6319 25.332 13.3333 25.0334 13.3333 24.6654C13.3333 24.2974 13.6319 23.9987 13.9999 23.9987H18.1346L21.1639 10.6654H5.99992C5.63192 10.6654 5.33325 10.3667 5.33325 9.9987C5.33325 9.6307 5.63192 9.33203 5.99992 9.33203H21.9999C22.2026 9.33203 22.3946 9.42403 22.5213 9.5827C22.6479 9.74003 22.6959 9.94803 22.6506 10.1454L19.3173 24.812C19.2479 25.1174 18.9773 25.332 18.6666 25.332Z" fill="#343434"/>
</g>
<defs>
<clipPath id="clip0">
<rect width="32" height="32" fill="white"/>
</clipPath>
</defs>
</svg>
