<svg width="44" height="42" viewBox="0 0 44 42" fill="none" xmlns="http://www.w3.org/2000/svg">
<path d="M21.1851 19.4653C16.9481 19.4653 13.5259 22.6961 13.5259 26.7346C13.5259 28.8346 14.4222 30.773 16.1333 32.1461L16.2962 32.3076V40.7076C16.2962 41.1115 16.5407 41.5153 16.8666 41.7576C17.274 41.9999 17.7629 42.0807 18.1703 41.8384L21.1037 40.6269L24.037 41.8384C24.4444 41.9999 24.9333 41.9999 25.3407 41.7576C25.7481 41.5153 25.9111 41.1115 25.9111 40.7076V32.4692L26.074 32.3884C27.7851 31.0153 28.8444 28.9961 28.8444 26.8153C28.8444 22.7769 25.4222 19.4653 21.1851 19.4653ZM23.3037 38.7692L21.674 38.123C21.3481 37.9615 20.9407 37.9615 20.6148 38.123L18.9851 38.7692V33.6807L19.474 33.7615C20.5333 34.0038 21.674 34.0038 22.8148 33.7615L23.3037 33.6807V38.7692ZM21.1851 31.4999C18.4148 31.4999 16.2148 29.3999 16.2148 26.7346C16.2148 24.0692 18.4148 21.9692 21.1851 21.9692C23.9555 21.9692 26.1555 24.0692 26.1555 26.7346C26.1555 29.3999 23.9555 31.4999 21.1851 31.4999Z" fill="#4586E8"/>
<path d="M42.6963 25.4423H36.1778V5.00769C36.1778 2.26154 33.8148 0 30.963 0H6.6C2.93333 0 0 2.82692 0 6.3V9.69231C0 10.4192 0.57037 10.9846 1.3037 10.9846H6.11111V30.45C6.11111 33.0346 7.74074 35.2962 10.1852 36.2654C10.837 36.5077 11.6519 36.1846 11.9778 35.5385C12.1407 35.2154 12.1407 34.8923 11.9778 34.5692C11.8148 34.2462 11.5704 34.0038 11.2444 33.8423C9.77778 33.2769 8.8 31.9038 8.8 30.3692V10.9846H26.8889C27.6222 10.9846 28.1926 10.4192 28.1926 9.69231V5.00769C28.1926 3.63461 29.3333 2.58462 30.7185 2.58462H30.8815C32.2667 2.58462 33.4074 3.71538 33.4074 5.00769V31.8231C33.4074 32.4692 33.5704 33.1154 33.8148 33.6808L34.0593 34.2462H31.6148C30.8815 34.2462 30.3111 34.8115 30.3111 35.5385C30.3111 36.2654 30.8815 36.8308 31.6148 36.8308H38.7852C41.637 36.8308 44 34.5692 44 31.8231V26.7346C44 26.0077 43.4296 25.4423 42.6963 25.4423ZM25.9111 3.06923C25.6667 3.63461 25.5037 4.28077 25.5037 4.92692V8.4H2.68889V6.3C2.68889 4.2 4.48148 2.58462 6.6 2.58462H26.1556L25.9111 3.06923ZM41.3111 31.7423C41.3111 33.1154 40.1704 34.1654 38.7852 34.1654H38.6222C37.237 34.1654 36.0963 33.0346 36.0963 31.7423V27.9461H41.3111V31.7423Z" fill="#4586E8"/>
</svg>
