<svg width="48" height="48" viewBox="0 0 48 48" fill="none" xmlns="http://www.w3.org/2000/svg">
<path d="M40.9705 7.02938C36.4375 2.49647 30.4106 0 24 0C17.5893 0 11.5623 2.49647 7.02938 7.02938C2.49638 11.5624 0 17.5894 0 24C0 30.4106 2.49638 36.4375 7.02938 40.9705C11.5624 45.5035 17.5893 48 24 48C30.4106 48 36.4375 45.5035 40.9705 40.9705C45.5035 36.4375 48 30.4106 48 24C48 17.5894 45.5035 11.5625 40.9705 7.02938ZM24 45.1875C12.3172 45.1875 2.8125 35.6828 2.8125 24C2.8125 12.3172 12.3172 2.8125 24 2.8125C35.6828 2.8125 45.1875 12.3172 45.1875 24C45.1875 35.6828 35.6828 45.1875 24 45.1875Z" fill="#59836B"/>
<path d="M35.4659 16.3024C34.9168 15.7534 34.0263 15.7534 33.4773 16.3025L21.0592 28.7205L14.5223 22.1836C13.9732 21.6345 13.0828 21.6345 12.5336 22.1836C11.9844 22.7327 11.9844 23.6231 12.5336 24.1723L20.0648 31.7035C20.3394 31.9781 20.6993 32.1154 21.0591 32.1154C21.4189 32.1154 21.7789 31.978 22.0534 31.7035L35.4659 18.2911C36.0151 17.742 36.0151 16.8515 35.4659 16.3024Z" fill="#59836B"/>
</svg>
