<svg width="48" height="48" viewBox="0 0 48 48" fill="none" xmlns="http://www.w3.org/2000/svg">
<path fill-rule="evenodd" clip-rule="evenodd" d="M32.5567 17.5823C33.1475 16.9915 33.1475 16.0338 32.5567 15.443C31.966 14.8523 31.0082 14.8523 30.4175 15.443L23.9998 21.8607L17.5824 15.4433C16.9916 14.8525 16.0339 14.8525 15.4431 15.4433C14.8524 16.034 14.8524 16.9918 15.4431 17.5825L21.8606 23.9999L15.443 30.4175C14.8523 31.0082 14.8523 31.966 15.443 32.5567C16.0338 33.1475 16.9915 33.1475 17.5823 32.5567L23.9998 26.1392L30.4176 32.557C31.0083 33.1477 31.9661 33.1477 32.5568 32.557C33.1476 31.9662 33.1476 31.0085 32.5568 30.4177L26.139 23.9999L32.5567 17.5823Z" fill="#DC7E7E"/>
<path fill-rule="evenodd" clip-rule="evenodd" d="M24 45C35.598 45 45 35.598 45 24C45 12.402 35.598 3 24 3C12.402 3 3 12.402 3 24C3 35.598 12.402 45 24 45ZM24 48C37.2548 48 48 37.2548 48 24C48 10.7452 37.2548 0 24 0C10.7452 0 0 10.7452 0 24C0 37.2548 10.7452 48 24 48Z" fill="#DC7E7E"/>
</svg>
