<svg width="32" height="32" viewBox="0 0 32 32" fill="none" xmlns="http://www.w3.org/2000/svg">
<path d="M29.5024 7.29574C29.1396 6.86688 28.6315 6.60493 28.0717 6.55818L8.35384 4.91176C7.79395 4.865 7.24959 5.03907 6.82068 5.40181C6.39352 5.76313 6.13195 6.26861 6.08372 6.82571L5.68701 10.5475H4.103C2.94341 10.5475 2 11.4909 2 12.6505V24.9935C2 26.1531 2.94341 27.0965 4.103 27.0965H23.8896C25.0492 27.0965 25.9926 26.1531 25.9926 24.9935V22.9913L26.6947 23.0499C26.754 23.0548 26.8129 23.0573 26.8713 23.0573C27.9523 23.0573 28.8739 22.2255 28.9655 21.1292L29.9925 8.82895C30.0392 8.26912 29.8652 7.72465 29.5024 7.29574ZM4.103 11.6412H23.8896C24.4461 11.6412 24.8989 12.094 24.8989 12.6505V13.7752H3.09374V12.6505C3.09374 12.094 3.5465 11.6412 4.103 11.6412ZM3.09374 14.8689H24.8989V17.1379H3.09374V14.8689ZM23.8896 26.0028H4.103C3.5465 26.0028 3.09374 25.55 3.09374 24.9935V18.2316H24.8989V24.9935C24.8989 25.55 24.4461 26.0028 23.8896 26.0028ZM28.9026 8.7379L27.8755 21.0381C27.8292 21.5927 27.3402 22.0064 26.7857 21.9599L25.9926 21.8937V12.6505C25.9926 11.4909 25.0492 10.5475 23.8896 10.5475H6.78699L7.17194 6.93595C7.17237 6.9318 7.17276 6.9277 7.17309 6.92349C7.21941 6.3689 7.70809 5.95525 8.26284 6.00173L27.9808 7.64815C28.2494 7.67057 28.4933 7.79629 28.6674 8.00214C28.8414 8.20798 28.925 8.46922 28.9026 8.7379Z" fill="#343434"/>
<path d="M22.6104 19.8574H17.3472C17.0451 19.8574 16.8003 20.1023 16.8003 20.4043V23.8381C16.8003 24.1401 17.0451 24.3849 17.3472 24.3849H22.6104C22.9124 24.3849 23.1573 24.1401 23.1573 23.8381V20.4043C23.1573 20.1023 22.9124 19.8574 22.6104 19.8574ZM22.0635 23.2912H17.894V20.9512H22.0635V23.2912Z" fill="#343434"/>
</svg>
