<svg width="48" height="48" viewBox="0 0 48 48" fill="none" xmlns="http://www.w3.org/2000/svg">
<path d="M42.8569 13.6237H37.3763V8.14314C37.3763 7.51141 36.8643 7 36.2331 7H7.14314C6.51141 7 6 7.51141 6 8.14314V37.2331C6 37.8643 6.51141 38.3763 7.14314 38.3763H12.6237V43.8569C12.6237 44.4886 13.1357 45 13.7669 45H42.8569C43.4886 45 44 44.4886 44 43.8569V14.7669C44 14.1357 43.4886 13.6237 42.8569 13.6237ZM41.714 42.714H14.9097V38.3763H36.2331C36.8643 38.3763 37.3763 37.8643 37.3763 37.2331V15.9097H41.714V42.714ZM8.286 9.286H35.0903V36.0903H8.286V9.286Z" fill="#343434"/>
<path d="M13.744 17.321H16.0132C17.5283 17.321 17.5216 15.035 16.0132 15.035H13.744C12.2347 15.035 12.2289 17.321 13.744 17.321Z" fill="#343434"/>
<path d="M20.4605 17.321H29.6326C31.1448 17.321 31.1576 15.035 29.6326 15.035H20.4605C18.9352 15.035 18.948 17.321 20.4605 17.321Z" fill="#343434"/>
<path d="M13.744 23.831H16.0131C17.523 23.831 17.5265 21.545 16.0131 21.545C15.2307 21.545 14.5653 21.545 13.7669 21.545H13.744C12.2277 21.545 12.2184 23.831 13.744 23.831Z" fill="#343434"/>
<path d="M20.4605 23.831H29.6326C31.1425 23.831 31.1451 21.545 29.6326 21.545H20.4605C18.9503 21.545 18.948 23.831 20.4605 23.831Z" fill="#343434"/>
<path d="M13.744 30.3402H16.0131C17.5254 30.3402 17.5236 28.0542 16.0131 28.0542C15.2307 28.0542 14.5653 28.0542 13.7669 28.0542H13.744C12.2373 28.0542 12.2112 30.3402 13.744 30.3402Z" fill="#343434"/>
<path d="M20.4605 30.3402H29.6326C31.1425 30.3402 31.1451 28.0542 29.6326 28.0542H20.4605C18.9506 28.0542 18.948 30.3402 20.4605 30.3402Z" fill="#343434"/>
</svg>
