<svg width="28" height="28" viewBox="0 0 28 28" fill="none" xmlns="http://www.w3.org/2000/svg">
<path d="M13.825 20.7772C13.2838 20.7772 12.845 20.3385 12.845 19.7972V12.3002C12.845 11.759 13.2838 11.3202 13.825 11.3202C14.3663 11.3202 14.805 11.759 14.805 12.3002V19.7972C14.805 20.3385 14.3663 20.7772 13.825 20.7772ZM13.825 7.44922C13.1485 7.44922 12.6 7.99768 12.6 8.67422C12.6 9.35076 13.1485 9.89922 13.825 9.89922C14.5015 9.89922 15.05 9.35076 15.05 8.67422C15.05 7.99768 14.5015 7.44922 13.825 7.44922Z" fill="#343434"/>
<rect x="1" y="1" width="26" height="26" rx="13" stroke="#343434" stroke-width="2"/>
</svg>
