<svg width="64" height="64" viewBox="0 0 64 64" fill="none" xmlns="http://www.w3.org/2000/svg">
<path d="M19.8881 40.6028C19.8881 39.6064 19.2087 39.0121 18.0099 39.0121C17.5204 39.0121 17.1889 39.0613 17.0155 39.1083V42.3054C17.2208 42.3524 17.4732 42.3681 17.8211 42.3681C19.0989 42.3681 19.8881 41.7111 19.8881 40.6028Z" fill="white"/>
<path d="M27.3092 39.0461C26.7723 39.0461 26.4254 39.0932 26.2202 39.1422V46.2226C26.4255 46.2716 26.757 46.2716 27.0568 46.2716C29.2345 46.2873 30.6549 45.0674 30.6549 42.4824C30.6703 40.2345 29.376 39.0461 27.3092 39.0461Z" fill="white"/>
<path fill-rule="evenodd" clip-rule="evenodd" d="M17.4165 2.00073H41.0965L56 17.1145V55.6148C56 59.1371 53.184 62.0007 49.7268 62.0007H17.4165C13.9571 62.0007 11.1415 59.1372 11.1415 55.6148V52.7532H10.5286C9.13223 52.7532 8 51.6021 8 50.18V34.5741C8 33.1519 9.13235 32.0007 10.5286 32.0007H11.1415V8.38665C11.1415 4.86808 13.9571 2.00073 17.4165 2.00073ZM17.8837 37.1669C16.4162 37.1669 15.3746 37.263 14.6336 37.3904V48.0698H17.0157V44.2001C17.2372 44.2313 17.5206 44.2472 17.8367 44.2472C19.257 44.2472 20.4712 43.8942 21.2922 43.1077C21.9234 42.4978 22.2703 41.5974 22.2703 40.5384C22.2703 39.4791 21.8125 38.579 21.1341 38.0337C20.4238 37.455 19.3668 37.1669 17.8837 37.1669ZM17.4165 58.0899H49.7268C51.0662 58.0899 52.155 56.9799 52.155 55.6147L52.0644 18.6637L44.0105 18.6872C41.6073 18.6872 39.6588 16.7025 39.6588 14.2586V5.89177L17.4165 5.91541C16.0771 5.91541 14.9862 7.02547 14.9862 8.38665V32.0007H45.1061C46.5025 32.0007 47.6348 33.1519 47.6348 34.5741V50.18C47.6348 51.6021 46.5025 52.7532 45.1061 52.7532H14.9862V55.6148C14.9862 56.9799 16.077 58.0899 17.4165 58.0899ZM23.8063 37.3904V48.0208C24.4057 48.101 25.2892 48.1814 26.5362 48.1814C28.6186 48.1814 30.3231 47.7322 31.4429 46.7849C32.4692 45.9025 33.2102 44.4726 33.2102 42.4014C33.2102 40.4893 32.5165 39.1575 31.4122 38.322C30.386 37.5356 29.0763 37.1669 27.0567 37.1669C25.8414 37.1669 24.6898 37.2473 23.8063 37.3904ZM41.0273 43.7176V41.727H37.2083V39.2536H41.2951V37.2473H34.7944V48.0698H37.2083V43.7176H41.0273Z" fill="white"/>
</svg>
