<svg width="36" height="36" viewBox="0 0 36 36" fill="none" xmlns="http://www.w3.org/2000/svg">
<circle cx="18" cy="18" r="17" stroke="#4586E8" stroke-width="2"/>
<path d="M23.7122 18.2933C23.3212 17.9023 22.6892 17.9023 22.2982 18.2933L20.7042 19.8872C19.9652 19.6672 18.5862 19.1672 17.7122 18.2933C16.8382 17.4193 16.3382 16.0402 16.1182 15.3012L17.7122 13.7072C18.1032 13.3162 18.1032 12.6842 17.7122 12.2933L13.7122 8.29325C13.3212 7.90225 12.6892 7.90225 12.2982 8.29325L9.58622 11.0053C9.20622 11.3853 8.99222 11.9072 9.00022 12.4402C9.02322 13.8643 9.40022 18.8103 13.2982 22.7083C17.1962 26.6063 22.1422 26.9823 23.5672 27.0063C23.5722 27.0063 23.5902 27.0063 23.5952 27.0063C24.1232 27.0063 24.6222 26.7983 25.0002 26.4202L27.7122 23.7083C28.1032 23.3173 28.1032 22.6853 27.7122 22.2943L23.7122 18.2933ZM23.5852 25.0052C22.3372 24.9842 18.0672 24.6493 14.7122 21.2933C11.3462 17.9272 11.0202 13.6423 11.0002 12.4193L13.0052 10.4143L15.5912 13.0002L14.2982 14.2933C14.0592 14.5312 13.9572 14.8752 14.0262 15.2052C14.0502 15.3202 14.6372 18.0472 16.2972 19.7072C17.9572 21.3672 20.6842 21.9542 20.7992 21.9782C21.1322 22.0492 21.4732 21.9462 21.7112 21.7072L23.0052 20.4142L25.5912 23.0002L23.5852 25.0052Z" fill="#4586E8"/>
</svg>
