<svg width="20" height="20" viewBox="0 0 20 20" fill="none" xmlns="http://www.w3.org/2000/svg">
<path d="M15.707 10.2928C15.316 9.90176 14.684 9.90176 14.293 10.2928L12.699 11.8868C11.96 11.6668 10.581 11.1668 9.707 10.2928C8.833 9.41876 8.333 8.03976 8.113 7.30076L9.707 5.70676C10.098 5.31576 10.098 4.68376 9.707 4.29276L5.707 0.292762C5.316 -0.0982383 4.684 -0.0982383 4.293 0.292762L1.581 3.00476C1.201 3.38476 0.986998 3.90676 0.994998 4.43976C1.018 5.86376 1.395 10.8098 5.293 14.7078C9.191 18.6058 14.137 18.9818 15.562 19.0058C15.567 19.0058 15.585 19.0058 15.59 19.0058C16.118 19.0058 16.617 18.7978 16.995 18.4198L19.707 15.7078C20.098 15.3168 20.098 14.6848 19.707 14.2938L15.707 10.2928ZM15.58 17.0048C14.332 16.9838 10.062 16.6488 6.707 13.2928C3.341 9.92676 3.015 5.64176 2.995 4.41876L5 2.41376L7.586 4.99976L6.293 6.29276C6.054 6.53076 5.952 6.87476 6.021 7.20476C6.045 7.31976 6.632 10.0468 8.292 11.7068C9.952 13.3668 12.679 13.9538 12.794 13.9778C13.127 14.0488 13.468 13.9458 13.706 13.7068L15 12.4138L17.586 14.9998L15.58 17.0048Z" fill="#222222"/>
</svg>
