<svg width="18" height="24" viewBox="0 0 18 24" fill="none" xmlns="http://www.w3.org/2000/svg">
<path d="M9 0C4.03622 0 0 4.05692 0 9.04615C0 10.4769 0.427041 12.1246 1.26735 13.9431C1.93776 15.3969 2.87908 16.9662 4.05918 18.6092C6.06582 21.4015 8.12296 23.5015 8.35255 23.7323C8.52704 23.9077 8.75663 24 9 24C9.24337 24 9.47296 23.9031 9.65204 23.7323C9.88163 23.5015 11.9388 21.4015 13.9454 18.6092C15.1255 16.9662 16.0622 15.3969 16.7372 13.9431C17.573 12.1246 18 10.4769 18 9.04615C18 4.05692 13.9638 0 9 0ZM9 1.84615C12.949 1.84615 16.1633 5.07692 16.1633 9.04615C16.1633 13.56 10.8505 19.7262 9 21.7385C7.14949 19.7262 1.83673 13.56 1.83673 9.04615C1.83673 5.07692 5.05102 1.84615 9 1.84615Z" fill="#343434"/>
<path d="M9 13.6615C11.5301 13.6615 13.5918 11.5892 13.5918 9.04615C13.5918 6.50308 11.5301 4.43077 9 4.43077C6.4699 4.43077 4.40816 6.50308 4.40816 9.04615C4.40816 11.5892 6.4699 13.6615 9 13.6615ZM9 6.27692C10.5199 6.27692 11.7551 7.51846 11.7551 9.04615C11.7551 10.5738 10.5199 11.8154 9 11.8154C7.4801 11.8154 6.2449 10.5738 6.2449 9.04615C6.2449 7.51846 7.4801 6.27692 9 6.27692Z" fill="#343434"/>
</svg>
