<svg width="48" height="48" viewBox="0 0 48 48" fill="none" xmlns="http://www.w3.org/2000/svg">
<path fill-rule="evenodd" clip-rule="evenodd" d="M36 8V12H32V16H36V20H40V16H44V12H40V8H36ZM22.332 11.1453C26.0056 14.8189 26.4612 20.4919 23.6987 24.6614L36 36.9627L32.9627 40L20.6614 27.6987C16.4919 30.4612 10.8189 30.0056 7.14527 26.332C2.95158 22.1383 2.95158 15.339 7.14527 11.1453C11.339 6.95158 18.1383 6.95158 22.332 11.1453ZM19.2946 23.2946C21.8108 20.7784 21.8108 16.6988 19.2946 14.1826C16.7784 11.6664 12.6988 11.6664 10.1826 14.1826C7.66639 16.6988 7.66639 20.7784 10.1826 23.2946C12.6988 25.8108 16.7784 25.8108 19.2946 23.2946Z" fill="white"/>
</svg>
