<svg width="17" height="16" viewBox="0 0 17 16" fill="none" xmlns="http://www.w3.org/2000/svg">
<path d="M16.4335 14.5614L12.5029 10.5965C13.5219 9.4386 14.0678 7.96491 14.0678 6.45614C14.0678 2.91228 11.0471 0 7.37128 0C3.69547 0 0.674744 2.91228 0.674744 6.45614C0.674744 10 3.69547 12.9123 7.37128 12.9123C8.75427 12.9123 10.0645 12.5263 11.1927 11.7544L15.1597 15.7544C15.3416 15.9298 15.56 16 15.7784 16C15.9967 16 16.2151 15.9298 16.3971 15.7544C16.761 15.4386 16.761 14.9123 16.4335 14.5614ZM7.37128 1.68421C10.1009 1.68421 12.3209 3.82456 12.3209 6.45614C12.3209 9.08772 10.1009 11.2281 7.37128 11.2281C4.64172 11.2281 2.42167 9.08772 2.42167 6.45614C2.42167 3.82456 4.64172 1.68421 7.37128 1.68421Z" fill="#222222"/>
</svg>
