<?xml version="1.0" encoding="utf-8"?>
<!-- Generator: Adobe Illustrator 24.1.2, SVG Export Plug-In . SVG Version: 6.00 Build 0)  -->
<svg version="1.1" id="Layer_1" xmlns="http://www.w3.org/2000/svg" xmlns:xlink="http://www.w3.org/1999/xlink" x="0px" y="0px"
	 viewBox="0 0 24 24" style="enable-background:new 0 0 24 24;" xml:space="preserve">
<style type="text/css">
	.st0{fill-rule:evenodd;clip-rule:evenodd;fill:#343434;}
</style>
<path class="st0" d="M6,14.8c0.2,1.4,1.4,2.4,2.8,2.4h12.2c0.3,0,0.6-0.3,0.6-0.6c0-0.3-0.3-0.6-0.6-0.6H8.8c-0.8,0-1.6-0.6-1.7-1.4
	l-0.2-1.2h12c1.5,0,2.8-1,3.3-2.4L24,5.4c0-0.1,0-0.3,0-0.4c0,0,0-0.1-0.1-0.1c0,0-0.1-0.1-0.1-0.1c-0.1-0.1-0.2-0.1-0.4-0.1h-18
	L5,2.4C4.8,1,3.6,0,2.2,0H0.6C0.3,0,0,0.3,0,0.6s0.3,0.6,0.6,0.6h1.6c0.8,0,1.6,0.6,1.7,1.4L6,14.8z M21.1,10.6l1.5-4.8h-17l1.1,6.4
	h12.2C19.9,12.2,20.8,11.6,21.1,10.6z M11.4,21.4c0-1.5-1.2-2.6-2.6-2.6c-1.5,0-2.6,1.2-2.6,2.6c0,1.5,1.2,2.6,2.6,2.6
	C10.2,24,11.4,22.8,11.4,21.4z M21.8,21.4c0-1.5-1.2-2.6-2.6-2.6c-1.5,0-2.6,1.2-2.6,2.6c0,1.5,1.2,2.6,2.6,2.6
	C20.6,24,21.8,22.8,21.8,21.4z M8.7,22.9c-0.8,0-1.5-0.7-1.5-1.5c0-0.8,0.7-1.5,1.5-1.5c0.8,0,1.5,0.7,1.5,1.5
	C10.2,22.2,9.6,22.9,8.7,22.9z M20.6,21.4c0,0.8-0.7,1.5-1.5,1.5c-0.8,0-1.5-0.7-1.5-1.5c0-0.8,0.7-1.5,1.5-1.5
	C20,19.9,20.6,20.5,20.6,21.4z"/>
</svg>
