<svg width="33" height="32" viewBox="0 0 33 32" fill="none" xmlns="http://www.w3.org/2000/svg">
<g clip-path="url(#clip0)">
<path d="M16.3463 32C25.1829 32 32.3463 24.8366 32.3463 16C32.3463 7.16344 25.1829 0 16.3463 0C7.50976 0 0.346313 7.16344 0.346313 16C0.346313 24.8366 7.50976 32 16.3463 32Z" fill="url(#paint0_linear)"/>
<path d="M13.413 23.3346C12.8946 23.3346 12.9827 23.1389 12.8039 22.6453L11.2797 17.6289L23.013 10.668" fill="#C8DAEA"/>
<path d="M13.413 23.333C13.813 23.333 13.9896 23.15 14.213 22.933L16.3463 20.8586L13.6852 19.2539" fill="#A9C9DD"/>
<path d="M13.685 19.2557L20.133 24.0195C20.8689 24.4255 21.3998 24.2153 21.5831 23.3365L24.2078 10.9681C24.4765 9.89074 23.7971 9.40194 23.0931 9.72154L7.68115 15.6643C6.62915 16.0863 6.63541 16.6733 7.48941 16.9347L11.4445 18.1693L20.6009 12.3926C21.0331 12.1305 21.4299 12.2713 21.1043 12.5603" fill="url(#paint1_linear)"/>
</g>
<defs>
<linearGradient id="paint0_linear" x1="21.6903" y1="5.344" x2="13.6903" y2="24" gradientUnits="userSpaceOnUse">
<stop stop-color="#37AEE2"/>
<stop offset="1" stop-color="#1E96C8"/>
</linearGradient>
<linearGradient id="paint1_linear" x1="18.3522" y1="16.0023" x2="20.8492" y2="21.6915" gradientUnits="userSpaceOnUse">
<stop stop-color="#EFF7FC"/>
<stop offset="1" stop-color="white"/>
</linearGradient>
<clipPath id="clip0">
<rect width="32" height="32" fill="white" transform="translate(0.346313)"/>
</clipPath>
</defs>
</svg>
