<svg width="31" height="32" viewBox="0 0 31 32" fill="none" xmlns="http://www.w3.org/2000/svg">
<g clip-path="url(#clip0)">
<path d="M26.9208 3.12103C26.1256 2.38733 22.9123 0.0546586 15.7549 0.0229674C15.7549 0.0229674 7.31443 -0.486013 3.19985 3.28813C0.90944 5.57902 0.103714 8.93109 0.0187237 13.087C-0.0662664 17.2428 -0.176226 25.0312 7.33124 27.143H7.33844L7.33364 30.3654C7.33364 30.3654 7.28562 31.67 8.14465 31.9361C9.18374 32.2587 9.79355 31.2672 10.7856 30.1983C11.3301 29.6115 12.082 28.7496 12.6486 28.0908C17.7831 28.523 21.732 27.5353 22.1805 27.3893C23.2172 27.0532 29.0834 26.3013 30.0375 18.5139C31.0224 10.4868 29.5612 5.40952 26.9208 3.12103ZM27.7908 17.9381C26.9856 24.4406 22.2276 24.8492 21.3503 25.1306C20.9772 25.2506 17.5089 26.1135 13.1475 25.8288C13.1475 25.8288 9.89775 29.7494 8.88267 30.7688C8.72421 30.9282 8.53791 30.9925 8.41354 30.9608C8.23876 30.9181 8.19074 30.7111 8.19266 30.4086C8.19555 29.9765 8.22051 25.0538 8.22051 25.0538C8.22051 25.0538 8.21667 25.0538 8.22051 25.0538C1.86978 23.2906 2.23999 16.6618 2.31202 13.1907C2.38404 9.71953 3.03611 6.87596 4.97312 4.96344C8.4534 1.81112 15.6228 2.28217 15.6228 2.28217C21.6773 2.30858 24.5785 4.13179 25.2512 4.74256C27.485 6.65508 28.623 11.2316 27.7908 17.9362V17.9381Z" fill="#7360F2"/>
<path fill-rule="evenodd" clip-rule="evenodd" d="M15.8779 10.3837C15.8895 10.1605 16.08 9.98891 16.3032 10.0006C17.1385 10.0441 17.8334 10.297 18.3283 10.8087C18.8214 11.3185 19.0631 12.0307 19.1055 12.886C19.1166 13.1092 18.9446 13.2992 18.7213 13.3103C18.498 13.3214 18.308 13.1493 18.2969 12.9261C18.2606 12.1939 18.0597 11.6955 17.7464 11.3715C17.435 11.0495 16.9597 10.8455 16.261 10.809C16.0378 10.7974 15.8662 10.607 15.8779 10.3837Z" fill="#7360F2"/>
<path fill-rule="evenodd" clip-rule="evenodd" d="M15.2642 8.20338C15.2805 7.98042 15.4745 7.81291 15.6975 7.82922C17.3973 7.95363 18.7655 8.53444 19.7621 9.62233L19.7623 9.62248C20.7481 10.6997 21.2166 12.0397 21.1826 13.6114C21.1777 13.8349 20.9926 14.0122 20.7691 14.0074C20.5456 14.0025 20.3684 13.8174 20.3732 13.5939C20.4032 12.2078 19.9956 11.0766 19.1651 10.169C18.337 9.26527 17.1796 8.74942 15.6384 8.63663C15.4154 8.62031 15.2479 8.42634 15.2642 8.20338Z" fill="#7360F2"/>
<path fill-rule="evenodd" clip-rule="evenodd" d="M14.5496 6.12853C14.5512 5.90498 14.7337 5.72502 14.9572 5.72657C17.3063 5.74293 19.2919 6.52497 20.8862 8.07909C22.4937 9.64621 23.2887 11.7797 23.3089 14.4295C23.3106 14.653 23.1307 14.8356 22.9072 14.8373C22.6836 14.839 22.501 14.6592 22.4993 14.4356C22.4804 11.9527 21.7418 10.0438 20.3211 8.65879C18.887 7.26083 17.1065 6.55113 14.9516 6.53612C14.728 6.53456 14.5481 6.35208 14.5496 6.12853Z" fill="#7360F2"/>
<path d="M16.3623 18.3291C16.3623 18.3291 16.9313 18.3772 17.2376 17.9998L17.835 17.2483C18.1231 16.8757 18.8184 16.638 19.4992 17.0173C20.0095 17.3083 20.5048 17.6247 20.9834 17.9652C21.4353 18.2975 22.3606 19.0696 22.3635 19.0696C22.8043 19.4417 22.906 19.9881 22.6059 20.5643C22.6059 20.5677 22.6035 20.5735 22.6035 20.5763C22.273 21.1493 21.8534 21.6661 21.3604 22.1071C21.3546 22.11 21.3546 22.1129 21.3493 22.1158C20.921 22.4737 20.5002 22.6771 20.087 22.7261C20.0261 22.7367 19.9643 22.7406 19.9026 22.7376C19.7203 22.7394 19.539 22.7115 19.3658 22.655L19.3523 22.6353C18.7156 22.4557 17.6525 22.0063 15.8821 21.0296C14.8576 20.4711 13.8823 19.8268 12.9665 19.1037C12.5075 18.7414 12.0697 18.3531 11.6552 17.9407L11.611 17.8965L11.5668 17.8523L11.5226 17.8082C11.5078 17.7938 11.4934 17.7789 11.4785 17.764C11.066 17.3495 10.6778 16.9116 10.3155 16.4526C9.59246 15.537 8.94817 14.5618 8.38953 13.5375C7.41287 11.7667 6.96343 10.7045 6.78384 10.0669L6.76416 10.0534C6.70786 9.8801 6.68013 9.69879 6.68205 9.51658C6.67869 9.4549 6.68239 9.39303 6.69309 9.33219C6.74463 8.91957 6.94838 8.49846 7.30435 8.06886C7.30723 8.06358 7.31011 8.06358 7.31299 8.05782C7.75393 7.56484 8.27068 7.14534 8.84377 6.81514C8.84666 6.81514 8.85242 6.81226 8.85578 6.81226C9.43198 6.51215 9.97842 6.61395 10.3501 7.05234C10.353 7.05523 11.1236 7.98051 11.4545 8.43235C11.795 8.91144 12.1114 9.40727 12.4023 9.918C12.7817 10.5984 12.544 11.2951 12.1714 11.5823L11.4199 12.1796C11.0406 12.486 11.0905 13.055 11.0905 13.055C11.0905 13.055 12.2035 17.2675 16.3623 18.3291Z" fill="#7360F2"/>
</g>
<defs>
<clipPath id="clip0">
<rect width="30.3463" height="32" fill="white"/>
</clipPath>
</defs>
</svg>
