<svg width="33" height="32" viewBox="0 0 33 32" fill="none" xmlns="http://www.w3.org/2000/svg">
<g clip-path="url(#clip0)">
<path d="M16.3502 0H16.3422C7.52019 0 0.346191 7.176 0.346191 16C0.346191 19.5 1.47419 22.744 3.39219 25.378L1.39819 31.322L7.54819 29.356C10.0782 31.032 13.0962 32 16.3502 32C25.1722 32 32.3462 24.822 32.3462 16C32.3462 7.178 25.1722 0 16.3502 0Z" fill="#4CAF50"/>
<path d="M25.66 22.5944C25.274 23.6844 23.742 24.5884 22.52 24.8524C21.684 25.0304 20.592 25.1724 16.916 23.6484C12.214 21.7004 9.18605 16.9224 8.95005 16.6124C8.72405 16.3024 7.05005 14.0824 7.05005 11.7864C7.05005 9.49036 8.21605 8.37236 8.68605 7.89236C9.07205 7.49836 9.71005 7.31836 10.322 7.31836C10.52 7.31836 10.698 7.32836 10.858 7.33636C11.328 7.35636 11.564 7.38436 11.874 8.12636C12.26 9.05636 13.2 11.3524 13.312 11.5884C13.426 11.8244 13.54 12.1444 13.38 12.4544C13.23 12.7744 13.098 12.9164 12.862 13.1884C12.626 13.4604 12.402 13.6684 12.166 13.9604C11.95 14.2144 11.706 14.4864 11.978 14.9564C12.25 15.4164 13.19 16.9504 14.574 18.1824C16.36 19.7724 17.808 20.2804 18.326 20.4964C18.712 20.6564 19.172 20.6184 19.454 20.3184C19.812 19.9324 20.254 19.2924 20.704 18.6624C21.024 18.2104 21.428 18.1544 21.852 18.3144C22.284 18.4644 24.57 19.5944 25.04 19.8284C25.51 20.0644 25.82 20.1764 25.934 20.3744C26.046 20.5724 26.046 21.5024 25.66 22.5944Z" fill="#FAFAFA"/>
</g>
<defs>
<clipPath id="clip0">
<rect width="32" height="32" fill="white" transform="translate(0.346191)"/>
</clipPath>
</defs>
</svg>
