<svg width="273" height="123" viewBox="0 0 273 123" fill="none" xmlns="http://www.w3.org/2000/svg">
<path opacity="0.8" d="M51.0859 117.841V118.841H52.0859H73.8275H74.8275V117.841V101.195H83.9106H84.9106V100.195V80.1869V79.1869H83.9106H74.8275V51.8282V50.8282H73.8275H52.0859H51.0859V51.8282V79.1869H28.9285L64.0186 4.83298L64.692 3.40619H63.1143H38.5367H37.9029L37.6324 3.9794L1.86897 79.7601L1.77332 79.9627V80.1869V100.195V101.195H2.77332H51.0859V117.841ZM238.175 117.841V118.841H239.175H260.917H261.917V117.841V101.195H271H272V100.195V80.1869V79.1869H271H261.917V51.8282V50.8282H260.917H239.175H238.175V51.8282V79.1869H216.018L251.108 4.83298L251.781 3.40619H250.204H225.626H224.992L224.722 3.9794L188.958 79.7601L188.863 79.9627V80.1869V100.195V101.195H189.863H238.175V117.841ZM136.919 121.204C145.464 121.204 152.989 119.414 159.463 115.799C165.927 112.19 170.97 107.147 174.579 100.683C178.194 94.2092 179.984 86.6837 179.984 78.1387V44.1083C179.984 35.5633 178.194 28.0379 174.579 21.5641C170.97 15.1004 165.927 10.0566 159.463 6.4477C152.989 2.83318 145.464 1.04297 136.919 1.04297C128.374 1.04297 120.848 2.83318 114.374 6.4477C107.911 10.0566 102.867 15.1004 99.2581 21.5641C95.6435 28.0379 93.8533 35.5633 93.8533 44.1083V78.1387C93.8533 86.6837 95.6435 94.2092 99.2581 100.683C102.867 107.147 107.911 112.19 114.374 115.799C120.848 119.414 128.374 121.204 136.919 121.204ZM136.919 98.8804C133.302 98.8804 130.065 98.0286 127.184 96.3394C124.285 94.6403 121.993 92.3475 120.294 89.4491C118.604 86.5675 117.753 83.3307 117.753 79.7142V42.3753C117.753 38.7589 118.604 35.5221 120.294 32.6404C121.993 29.742 124.285 27.4492 127.184 25.7501C130.065 24.0609 133.302 23.2091 136.919 23.2091C140.535 23.2091 143.772 24.0609 146.654 25.7501C149.552 27.4492 151.845 29.742 153.544 32.6404C155.233 35.522 156.085 38.7588 156.085 42.3753V79.7142C156.085 83.3307 155.233 86.5675 153.544 89.4491C151.845 92.3475 149.552 94.6403 146.654 96.3394C143.772 98.0286 140.535 98.8804 136.919 98.8804Z" fill="#4586E8" stroke="#4586E8" stroke-width="2"/>
</svg>
