<svg width="273" height="120" viewBox="0 0 273 120" fill="none" xmlns="http://www.w3.org/2000/svg">
<path opacity="0.8" d="M60.0444 113.929L60.0501 113.926C66.2629 110.5 71.2822 105.905 75.0928 100.147L75.0951 100.143C78.9245 94.3032 80.837 87.7701 80.837 80.5707C80.837 73.4095 79.2578 67.0238 76.0729 61.4425C72.9469 55.821 68.5752 51.4118 62.9728 48.2292C57.4057 44.9852 50.9697 43.3787 43.6969 43.3787C41.1518 43.3787 38.4595 43.6984 35.6228 44.3306C33.3343 44.8406 31.1315 45.5886 29.0155 46.574L30.4139 24.9627H72.2947H73.2947V23.9627V4.32V3.32H72.2947H10.5423H9.59894L9.54398 4.26174L6.0871 63.4991L6.04104 64.2884L6.79843 64.5153L24.8685 69.9286L25.4216 70.0943L25.8416 69.6981C27.0006 68.6049 28.7922 67.418 31.2684 66.1485L31.2755 66.1449L31.2826 66.1411C33.6059 64.9024 36.6762 64.248 40.5543 64.248C43.6352 64.248 46.4202 64.9796 48.9311 66.4334L48.9384 66.4376C51.5152 67.9009 53.5356 69.8675 55.0162 72.345L55.0199 72.3512L55.0237 72.3574C56.5464 74.8232 57.3101 77.5531 57.3101 80.5707C57.3101 83.5882 56.5464 86.3181 55.0237 88.7839L55.0199 88.7901L55.0162 88.7963C53.5356 91.2738 51.5152 93.2404 48.9384 94.7037L48.9311 94.7079C46.4202 96.1618 43.6352 96.8933 40.5543 96.8933C37.1144 96.8933 33.8292 95.8093 30.6802 93.5953C27.5736 91.411 25.5375 88.4906 24.5502 84.7977L24.293 83.8356L23.3298 84.0889L2.74566 89.5022L1.75623 89.7624L2.03894 90.7457C3.64936 96.3466 6.31129 101.273 10.0259 105.512C13.7315 109.741 18.1387 113.048 23.2401 115.426L23.2438 115.428C28.4074 117.811 33.9195 119 39.7686 119C47.0533 119 53.8176 117.311 60.0444 113.929ZM131.896 119C140.417 119 147.92 117.243 154.376 113.695C160.822 110.152 165.855 105.2 169.456 98.8507C173.064 92.4911 174.85 85.0979 174.85 76.704V43.296C174.85 34.9021 173.064 27.5089 169.456 21.1493C165.855 14.8 160.822 9.84763 154.376 6.30496C147.92 2.75693 140.417 1 131.896 1C123.376 1 115.872 2.75693 109.416 6.30496C102.97 9.84763 97.9379 14.8 94.3364 21.1493C90.7291 27.5089 88.9424 34.9021 88.9424 43.296V76.704C88.9424 85.0979 90.7291 92.4911 94.3364 98.8507C97.9379 105.2 102.97 110.152 109.416 113.695C115.872 117.243 123.376 119 131.896 119ZM131.896 97.048C128.287 97.048 125.057 96.2111 122.183 94.5525C119.292 92.8844 117.007 90.6344 115.314 87.7923C113.631 84.9672 112.784 81.795 112.784 78.2507V41.5947C112.784 38.0503 113.631 34.8781 115.314 32.053C117.007 29.2109 119.292 26.9609 122.183 25.2928C125.057 23.6342 128.287 22.7973 131.896 22.7973C135.506 22.7973 138.736 23.6342 141.61 25.2928C144.501 26.9609 146.786 29.2109 148.479 32.053C150.161 34.8781 151.009 38.0503 151.009 41.5947V78.2507C151.009 81.795 150.161 84.9672 148.479 87.7923C146.786 90.6344 144.501 92.8844 141.61 94.5525C138.736 96.2111 135.506 97.048 131.896 97.048ZM229.046 119C237.566 119 245.07 117.243 251.526 113.695C257.972 110.152 263.004 105.2 266.606 98.8507C270.213 92.4911 272 85.0979 272 76.704V43.296C272 34.9021 270.213 27.5089 266.606 21.1493C263.004 14.8 257.972 9.84763 251.526 6.30496C245.07 2.75693 237.566 1 229.046 1C220.526 1 213.022 2.75693 206.566 6.30496C200.12 9.84763 195.088 14.8 191.486 21.1493C187.879 27.5089 186.092 34.9021 186.092 43.296V76.704C186.092 85.0979 187.879 92.4911 191.486 98.8507C195.088 105.2 200.12 110.152 206.566 113.695C213.022 117.243 220.526 119 229.046 119ZM229.046 97.048C225.437 97.048 222.207 96.2111 219.332 94.5525C216.441 92.8844 214.156 90.6344 212.464 87.7923C210.781 84.9672 209.933 81.795 209.933 78.2507V41.5947C209.933 38.0503 210.781 34.8781 212.464 32.053C214.156 29.2109 216.441 26.9609 219.332 25.2928C222.207 23.6342 225.437 22.7973 229.046 22.7973C232.655 22.7973 235.885 23.6342 238.76 25.2928C241.651 26.9609 243.936 29.2109 245.628 32.053C247.311 34.8781 248.159 38.0503 248.159 41.5947V78.2507C248.159 81.795 247.311 84.9672 245.628 87.7923C243.936 90.6344 241.651 92.8844 238.76 94.5525C235.885 96.2111 232.655 97.048 229.046 97.048Z" fill="#4586E8" stroke="#4586E8" stroke-width="2"/>
</svg>
