<svg aria-hidden="true" style="position: absolute; width: 0; height: 0; overflow: hidden;" version="1.1" xmlns="http://www.w3.org/2000/svg" xmlns:xlink="http://www.w3.org/1999/xlink">
    <defs>
        <symbol id="icon-arrow-left" viewBox="0 0 32 32">
            <path fill="#4586e8" style="fill: var(--iconColor, #4586e8)" d="M30.482 16c0-0.917-0.694-1.661-1.551-1.661h-23.522l2.91-3.13c0.602-0.648 0.601-1.696-0.002-2.342s-1.584-0.647-2.188 0l-5.745 6.155c-0.505 0.541-0.505 1.417 0 1.958l5.745 6.155c0.604 0.647 1.584 0.647 2.188 0s0.604-1.694 0.002-2.342l-2.91-3.13h23.522c0.856 0 1.551-0.744 1.551-1.661z"></path>
        </symbol>
        <symbol id="icon-arrow-right" viewBox="0 0 32 32">
            <path fill="#4586e8" style="fill: var(--iconColor, #4586e8)" d="M0.006 16c0-0.917 0.694-1.661 1.551-1.661h23.522l-2.91-3.13c-0.602-0.648-0.601-1.696 0.002-2.342s1.584-0.647 2.188 0l5.745 6.155c0.505 0.541 0.505 1.417 0 1.958l-5.745 6.155c-0.604 0.647-1.584 0.647-2.188 0s-0.605-1.694-0.002-2.342l2.91-3.13h-23.522c-0.856 0-1.551-0.744-1.551-1.661z"></path>
        </symbol>
        <symbol id="icon-calendar" viewBox="0 0 32 32">
            <path fill="#4586e8" style="fill: var(--iconColor, #4586e8)" d="M24.308 14.277c0.68 0 1.231-0.551 1.231-1.231s-0.551-1.231-1.231-1.231c-0.68 0-1.231 0.551-1.231 1.231s0.551 1.231 1.231 1.231z"></path>
            <path fill="#4586e8" style="fill: var(--iconColor, #4586e8)" d="M27.2 2.523h-1.969v-1.538c0-0.554-0.431-0.985-0.923-0.985s-0.985 0.431-0.985 0.985v1.6h-6.4v-1.6c0-0.554-0.431-0.985-0.985-0.985s-0.985 0.431-0.985 0.985v1.6h-6.338v-1.6c0-0.554-0.431-0.985-0.985-0.985s-0.985 0.431-0.985 0.985v1.6h-1.846c-2.646-0.062-4.8 2.092-4.8 4.738v19.877c0 2.646 2.154 4.8 4.8 4.8h9.723c0.554 0 0.985-0.431 0.985-0.985s-0.431-0.985-0.985-0.985h-9.723c-1.6 0-2.831-1.292-2.831-2.831v-19.877c0-1.6 1.292-2.831 2.831-2.831h1.908v1.6c0 0.554 0.431 0.985 0.985 0.985s0.923-0.492 0.923-0.985v-1.6h6.338v1.6c0 0.554 0.431 0.985 0.985 0.985s0.985-0.431 0.985-0.985v-1.6h6.4v1.6c0 0.554 0.431 0.985 0.985 0.985s0.923-0.492 0.923-0.985v-1.6h1.969c1.6 0 2.831 1.292 2.831 2.831v7.262c0 0.554 0.431 0.985 0.985 0.985s0.985-0.431 0.985-0.985v-7.262c0-2.646-2.154-4.8-4.8-4.8z"></path>
            <path fill="#4586e8" style="fill: var(--iconColor, #4586e8)" d="M24.615 17.169c-4.062 0-7.385 3.323-7.385 7.385s3.323 7.385 7.385 7.385 7.385-3.323 7.385-7.385c0-4.062-3.323-7.385-7.385-7.385zM24.615 30.092c-3.015 0-5.477-2.462-5.477-5.477s2.462-5.477 5.477-5.477c3.015 0 5.477 2.462 5.477 5.477s-2.462 5.477-5.477 5.477z"></path>
            <path fill="#4586e8" style="fill: var(--iconColor, #4586e8)" d="M26.462 23.631h-0.862v-1.662c0-0.554-0.431-0.985-0.985-0.985s-0.985 0.431-0.985 0.985v2.646c0 0.554 0.431 0.985 0.985 0.985h1.846c0.554 0 0.985-0.431 0.985-0.985s-0.492-0.985-0.985-0.985z"></path>
            <path fill="#4586e8" style="fill: var(--iconColor, #4586e8)" d="M18.769 14.277c0.68 0 1.231-0.551 1.231-1.231s-0.551-1.231-1.231-1.231c-0.68 0-1.231 0.551-1.231 1.231s0.551 1.231 1.231 1.231z"></path>
            <path fill="#4586e8" style="fill: var(--iconColor, #4586e8)" d="M13.169 19.815c0.68 0 1.231-0.551 1.231-1.231s-0.551-1.231-1.231-1.231-1.231 0.551-1.231 1.231c0 0.68 0.551 1.231 1.231 1.231z"></path>
            <path fill="#4586e8" style="fill: var(--iconColor, #4586e8)" d="M7.631 14.277c0.68 0 1.231-0.551 1.231-1.231s-0.551-1.231-1.231-1.231c-0.68 0-1.231 0.551-1.231 1.231s0.551 1.231 1.231 1.231z"></path>
            <path fill="#4586e8" style="fill: var(--iconColor, #4586e8)" d="M7.631 19.815c0.68 0 1.231-0.551 1.231-1.231s-0.551-1.231-1.231-1.231c-0.68 0-1.231 0.551-1.231 1.231s0.551 1.231 1.231 1.231z"></path>
            <path fill="#4586e8" style="fill: var(--iconColor, #4586e8)" d="M7.631 25.415c0.68 0 1.231-0.551 1.231-1.231s-0.551-1.231-1.231-1.231c-0.68 0-1.231 0.551-1.231 1.231s0.551 1.231 1.231 1.231z"></path>
            <path fill="#4586e8" style="fill: var(--iconColor, #4586e8)" d="M13.169 25.415c0.68 0 1.231-0.551 1.231-1.231s-0.551-1.231-1.231-1.231-1.231 0.551-1.231 1.231c0 0.68 0.551 1.231 1.231 1.231z"></path>
            <path fill="#4586e8" style="fill: var(--iconColor, #4586e8)" d="M13.169 14.277c0.68 0 1.231-0.551 1.231-1.231s-0.551-1.231-1.231-1.231c-0.68 0-1.231 0.551-1.231 1.231s0.551 1.231 1.231 1.231z"></path>
        </symbol>
        <symbol id="icon-camera" viewBox="0 0 32 32">
            <path fill="#4586e8" style="fill: var(--iconColor, #4586e8)" d="M25.719 5.533l-0.356-1.058c-0.474-1.352-1.837-2.293-3.319-2.293h-6.815c-1.481 0-2.785 0.882-3.318 2.234l-0.415 1.176c-0.237 0.588-0.83 1-1.481 1h-5.215c-2.667 0-4.8 2.058-4.8 4.586v14.053c0 2.528 2.133 4.586 4.8 4.586h22.4c2.667 0 4.8-2.058 4.8-4.586 0-0.529-0.415-0.941-0.948-0.941s-0.948 0.412-0.948 0.941c0 1.529-1.304 2.764-2.844 2.764h-19.556v-11.936c0-0.529-0.415-0.941-0.948-0.941s-0.948 0.412-0.948 0.941v11.878h-1.007c-1.541 0-2.844-1.235-2.844-2.764v-13.995c0-1.529 1.304-2.764 2.844-2.764h5.215c1.481 0 2.785-0.882 3.318-2.234l0.415-1.176c0.237-0.588 0.83-1 1.481-1h6.815c0.652 0 1.244 0.412 1.481 1l0.356 1.058c0.474 1.352 1.778 2.234 3.259 2.293 1.6 0 2.904 1.235 2.904 2.764v7.938c0 0.529 0.415 0.941 0.948 0.941s0.948-0.412 0.948-0.941v-7.879c0-2.47-2.133-4.528-4.681-4.586-0.711 0-1.304-0.412-1.541-1.058zM18.726 10.238c-4.207 0-7.644 3.293-7.644 7.35s3.437 7.35 7.644 7.35c4.207 0 7.644-3.293 7.644-7.35s-3.437-7.35-7.644-7.35zM18.726 23.056c-3.141 0-5.689-2.47-5.689-5.468s2.548-5.468 5.689-5.468c3.141 0 5.689 2.47 5.689 5.468s-2.548 5.468-5.689 5.468zM5.748 11.825c0-0.529 0.415-0.941 0.948-0.941s0.948 0.412 0.948 0.941c0 0.529-0.415 0.941-0.948 0.941s-0.948-0.412-0.948-0.941z"></path>
        </symbol>
        <symbol id="icon-car" viewBox="0 0 32 32">
            <path d="M8.667 25.333h-2.667c-0.368 0-0.667-0.299-0.667-0.667s0.299-0.667 0.667-0.667h2.667c0.368 0 0.667 0.299 0.667 0.667s-0.299 0.667-0.667 0.667z"></path>
            <path d="M30.333 25.332h-1.667c-0.368 0-0.667-0.299-0.667-0.667s0.299-0.667 0.667-0.667h1.113l0.899-4.789c-0.012-2.451-2.105-4.544-4.679-4.544h-4.377l-2.121 9.333h3.832c0.368 0 0.667 0.299 0.667 0.667s-0.299 0.667-0.667 0.667h-4.667c-0.203 0-0.395-0.092-0.521-0.251-0.127-0.157-0.175-0.365-0.129-0.563l2.424-10.667c0.069-0.305 0.339-0.52 0.651-0.52h4.909c3.308 0 6 2.692 6 6l-1.012 5.456c-0.059 0.316-0.333 0.544-0.655 0.544z"></path>
            <path d="M26 27.999c-1.837 0-3.333-1.495-3.333-3.333s1.496-3.333 3.333-3.333c1.837 0 3.333 1.495 3.333 3.333s-1.496 3.333-3.333 3.333zM26 22.665c-1.103 0-2 0.897-2 2s0.897 2 2 2c1.103 0 2-0.897 2-2s-0.897-2-2-2z"></path>
            <path d="M11.333 27.999c-1.837 0-3.333-1.495-3.333-3.333s1.496-3.333 3.333-3.333c1.837 0 3.333 1.495 3.333 3.333s-1.496 3.333-3.333 3.333zM11.333 22.665c-1.103 0-2 0.897-2 2s0.897 2 2 2c1.103 0 2-0.897 2-2s-0.897-2-2-2z"></path>
            <path d="M8.667 13.333h-5.333c-0.368 0-0.667-0.299-0.667-0.667s0.299-0.667 0.667-0.667h5.333c0.368 0 0.667 0.299 0.667 0.667s-0.299 0.667-0.667 0.667z"></path>
            <path d="M8.667 17.333h-6.667c-0.368 0-0.667-0.299-0.667-0.667s0.299-0.667 0.667-0.667h6.667c0.368 0 0.667 0.299 0.667 0.667s-0.299 0.667-0.667 0.667z"></path>
            <path d="M8.667 21.333h-8c-0.368 0-0.667-0.299-0.667-0.667s0.299-0.667 0.667-0.667h8c0.368 0 0.667 0.299 0.667 0.667s-0.299 0.667-0.667 0.667z"></path>
            <path d="M18.667 25.332h-4.667c-0.368 0-0.667-0.299-0.667-0.667s0.299-0.667 0.667-0.667h4.135l3.029-13.333h-15.164c-0.368 0-0.667-0.299-0.667-0.667s0.299-0.667 0.667-0.667h16c0.203 0 0.395 0.092 0.521 0.251 0.127 0.157 0.175 0.365 0.129 0.563l-3.333 14.667c-0.069 0.305-0.34 0.52-0.651 0.52z"></path>
        </symbol>
        <symbol id="icon-certificate" viewBox="0 0 32 32">
            <path fill="#4586e8" style="fill: var(--iconColor, #4586e8)" d="M15.407 14.884c-3.081 0-5.57 2.35-5.57 5.287 0 1.527 0.652 2.937 1.896 3.936l0.118 0.117v6.109c0 0.294 0.178 0.587 0.415 0.764 0.296 0.176 0.652 0.235 0.948 0.059l2.133-0.881 2.133 0.881c0.296 0.117 0.652 0.117 0.948-0.059s0.415-0.47 0.415-0.764v-5.992l0.118-0.059c1.244-0.999 2.015-2.467 2.015-4.053 0-2.937-2.489-5.345-5.57-5.345zM16.948 28.923l-1.185-0.47c-0.237-0.117-0.533-0.117-0.77 0l-1.185 0.47v-3.701l0.356 0.059c0.77 0.176 1.6 0.176 2.43 0l0.356-0.059v3.701zM15.407 23.636c-2.015 0-3.615-1.527-3.615-3.466s1.6-3.466 3.615-3.466c2.015 0 3.615 1.527 3.615 3.466s-1.6 3.466-3.615 3.466z"></path>
            <path fill="#4586e8" style="fill: var(--iconColor, #4586e8)" d="M31.052 19.231h-4.741v-14.862c0-1.997-1.719-3.642-3.793-3.642h-17.719c-2.667 0-4.8 2.056-4.8 4.582v2.467c0 0.529 0.415 0.94 0.948 0.94h3.496v14.157c0 1.88 1.185 3.524 2.963 4.229 0.474 0.176 1.067-0.059 1.304-0.529 0.118-0.235 0.118-0.47 0-0.705s-0.296-0.411-0.533-0.529c-1.067-0.411-1.778-1.41-1.778-2.526v-14.098h13.156c0.533 0 0.948-0.411 0.948-0.94v-3.407c0-0.999 0.83-1.762 1.837-1.762h0.119c1.007 0 1.837 0.822 1.837 1.762v19.502c0 0.47 0.119 0.94 0.296 1.351l0.178 0.411h-1.778c-0.533 0-0.948 0.411-0.948 0.94s0.415 0.94 0.948 0.94h5.215c2.074 0 3.793-1.645 3.793-3.642v-3.701c0-0.529-0.415-0.94-0.948-0.94zM18.844 2.959c-0.178 0.411-0.296 0.881-0.296 1.351v2.526h-16.593v-1.527c0-1.527 1.304-2.702 2.844-2.702h14.222l-0.178 0.352zM30.044 23.813c0 0.999-0.83 1.762-1.837 1.762h-0.119c-1.007 0-1.837-0.822-1.837-1.762v-2.761h3.793v2.761z"></path>
        </symbol>
        <symbol id="icon-chevron-right-white" viewBox="0 0 32 32">
            <path fill="#fff" style="fill: var(--iconColor, #fff)" d="M10.343 30.269l14.795-14.795-14.795-14.795-3.481 3.481 11.314 11.314-11.314 11.314 3.481 3.481z"></path>
        </symbol>
        <symbol id="icon-circle-check" viewBox="0 0 32 32">
            <path fill="#59836b" style="fill: var(--iconColor, #59836b)" d="M27.314 4.686c-3.022-3.022-7.040-4.686-11.314-4.686s-8.292 1.664-11.314 4.686c-3.022 3.022-4.686 7.040-4.686 11.314s1.664 8.292 4.686 11.314c3.022 3.022 7.040 4.686 11.314 4.686s8.292-1.664 11.314-4.686 4.686-7.040 4.686-11.314c0-4.274-1.664-8.292-4.686-11.314zM16 30.125c-7.789 0-14.125-6.336-14.125-14.125s6.336-14.125 14.125-14.125c7.789 0 14.125 6.336 14.125 14.125s-6.336 14.125-14.125 14.125z"></path>
            <path fill="#59836b" style="fill: var(--iconColor, #59836b)" d="M23.644 10.868c-0.366-0.366-0.96-0.366-1.326 0l-8.279 8.279-4.358-4.358c-0.366-0.366-0.96-0.366-1.326 0s-0.366 0.96 0 1.326l5.021 5.021c0.183 0.183 0.423 0.275 0.663 0.275s0.48-0.092 0.663-0.275l8.942-8.942c0.366-0.366 0.366-0.96 0-1.326z"></path>
        </symbol>
        <symbol id="icon-circle-x" viewBox="0 0 32 32">
            <path fill="#dc7e7e" style="fill: var(--iconColor, #dc7e7e)" d="M21.704 11.722c0.394-0.394 0.394-1.032 0-1.426s-1.032-0.394-1.426 0l-4.278 4.278-4.278-4.278c-0.394-0.394-1.032-0.394-1.426 0s-0.394 1.032 0 1.426l4.278 4.278-4.278 4.278c-0.394 0.394-0.394 1.032 0 1.426s1.032 0.394 1.426 0l4.278-4.278 4.279 4.279c0.394 0.394 1.032 0.394 1.426 0s0.394-1.032 0-1.426l-4.279-4.279 4.278-4.278z"></path>
            <path fill="#dc7e7e" style="fill: var(--iconColor, #dc7e7e)" d="M16 30c-7.732 0-14-6.268-14-14s6.268-14 14-14c7.732 0 14 6.268 14 14s-6.268 14-14 14zM16 32c8.837 0 16-7.163 16-16s-7.163-16-16-16c-8.837 0-16 7.163-16 16s7.163 16 16 16z"></path>
        </symbol>
        <symbol id="icon-clock" viewBox="0 0 32 32">
            <path d="M16 0c-8.822 0-16 7.178-16 16s7.178 16 16 16c8.822 0 16-7.178 16-16s-7.178-16-16-16zM16 28.8c-7.058 0-12.8-5.742-12.8-12.8s5.742-12.8 12.8-12.8c7.058 0 12.8 5.742 12.8 12.8s-5.742 12.8-12.8 12.8z"></path>
            <path d="M17.6 8h-3.2v9.6h9.6v-3.2h-6.4v-6.4z"></path>
        </symbol>
        <symbol id="icon-close" viewBox="0 0 32 32">
            <path d="M32 1.885l-1.885-1.885-14.115 14.115-14.115-14.115-1.885 1.885 14.115 14.115-14.115 14.115 1.885 1.885 14.115-14.115 14.115 14.115 1.885-1.885-14.115-14.115z"></path>
        </symbol>
        <symbol id="icon-close-light" viewBox="0 0 32 32">
            <path fill="#f2f5f8" style="fill: var(--iconColor, #f2f5f8)" d="M32 1.885l-1.885-1.885-14.115 14.115-14.115-14.115-1.885 1.885 14.115 14.115-14.115 14.115 1.885 1.885 14.115-14.115 14.115 14.115 1.885-1.885-14.115-14.115z"></path>
        </symbol>
        <symbol id="icon-credit-cards" viewBox="0 0 32 32">
            <path d="M29.502 7.296c-0.363-0.429-0.871-0.691-1.431-0.738l-19.718-1.646c-0.56-0.047-1.104 0.127-1.533 0.49-0.427 0.361-0.689 0.867-0.737 1.424l-0.397 3.722h-1.584c-1.16 0-2.103 0.943-2.103 2.103v12.343c0 1.16 0.943 2.103 2.103 2.103h19.787c1.16 0 2.103-0.943 2.103-2.103v-2.002l0.702 0.059c0.059 0.005 0.118 0.007 0.177 0.007 1.081 0 2.003-0.832 2.094-1.928l1.027-12.3c0.047-0.56-0.127-1.104-0.49-1.533zM4.103 11.641h19.787c0.556 0 1.009 0.453 1.009 1.009v1.125h-21.805v-1.125c0-0.556 0.453-1.009 1.009-1.009zM3.094 14.869h21.805v2.269h-21.805v-2.269zM23.89 26.003h-19.787c-0.556 0-1.009-0.453-1.009-1.009v-6.762h21.805v6.762c0 0.556-0.453 1.009-1.009 1.009zM28.903 8.738l-1.027 12.3c-0.046 0.555-0.535 0.968-1.090 0.922l-0.793-0.066v-9.243c0-1.16-0.943-2.103-2.103-2.103h-17.103l0.385-3.612c0-0.004 0.001-0.008 0.001-0.012 0.046-0.555 0.535-0.968 1.090-0.922l19.718 1.646c0.269 0.022 0.512 0.148 0.687 0.354s0.258 0.467 0.235 0.736z"></path>
            <path d="M22.61 19.857h-5.263c-0.302 0-0.547 0.245-0.547 0.547v3.434c0 0.302 0.245 0.547 0.547 0.547h5.263c0.302 0 0.547-0.245 0.547-0.547v-3.434c0-0.302-0.245-0.547-0.547-0.547zM22.064 23.291h-4.169v-2.34h4.169v2.34z"></path>
        </symbol>
        <symbol id="icon-docs" viewBox="0 0 32 32">
            <path d="M28.571 9.082h-3.654v-3.654c0-0.421-0.341-0.762-0.762-0.762h-19.393c-0.421 0-0.762 0.341-0.762 0.762v19.393c0 0.421 0.341 0.762 0.762 0.762h3.654v3.654c0 0.421 0.341 0.762 0.762 0.762h19.393c0.421 0 0.762-0.341 0.762-0.762v-19.393c0-0.421-0.341-0.762-0.762-0.762zM27.809 28.476h-17.87v-2.892h14.216c0.421 0 0.762-0.341 0.762-0.762v-14.216h2.892v17.87zM5.524 6.191h17.87v17.87h-17.87v-17.87z"></path>
            <path d="M9.163 11.547h1.513c1.010 0 1.006-1.524 0-1.524h-1.513c-1.006 0-1.010 1.524 0 1.524z"></path>
            <path d="M13.64 11.547h6.115c1.008 0 1.017-1.524 0-1.524h-6.115c-1.017 0-1.008 1.524 0 1.524z"></path>
            <path d="M9.163 15.887h1.513c1.007 0 1.009-1.524 0-1.524-0.522 0-0.965 0-1.497 0h-0.015c-1.011 0-1.017 1.524 0 1.524z"></path>
            <path d="M13.64 15.887h6.115c1.007 0 1.008-1.524 0-1.524h-6.115c-1.007 0-1.008 1.524 0 1.524z"></path>
            <path d="M9.163 20.227h1.513c1.008 0 1.007-1.524 0-1.524-0.522 0-0.965 0-1.497 0h-0.015c-1.004 0-1.022 1.524 0 1.524z"></path>
            <path d="M13.64 20.227h6.115c1.007 0 1.008-1.524 0-1.524h-6.115c-1.007 0-1.008 1.524 0 1.524z"></path>
        </symbol>
        <symbol id="icon-empty-box" viewBox="0 0 32 32">
            <path d="M28.442 11.538l3.375-3.375c0.139-0.139 0.205-0.335 0.177-0.53s-0.145-0.365-0.318-0.46l-4.057-2.228c-0.302-0.166-0.682-0.055-0.849 0.247s-0.056 0.683 0.247 0.849l3.327 1.827-2.896 2.896-10.417-5.72 2.896-2.896 2.928 1.608c0.302 0.166 0.683 0.056 0.849-0.247s0.056-0.683-0.247-0.849l-3.339-1.833c-0.244-0.134-0.546-0.091-0.743 0.106l-3.375 3.375-3.375-3.375c-0.197-0.197-0.499-0.24-0.743-0.106l-11.558 6.347c-0.172 0.095-0.29 0.265-0.318 0.46s0.038 0.391 0.177 0.53l3.375 3.375-3.375 3.374c-0.139 0.139-0.205 0.335-0.177 0.53s0.145 0.365 0.318 0.459l3.493 1.918v6.411c0 0.228 0.124 0.438 0.324 0.548l11.558 6.346c0.094 0.052 0.197 0.077 0.301 0.077s0.207-0.026 0.301-0.077l11.558-6.346c0.2-0.11 0.324-0.32 0.324-0.548v-6.411l3.493-1.918c0.172-0.095 0.29-0.265 0.318-0.46s-0.038-0.391-0.177-0.53zM16 17.172l-10.259-5.634 10.259-5.634 10.259 5.634zM12.073 2.149l2.896 2.896-10.417 5.72-2.896-2.896zM4.553 12.312l10.417 5.72-2.896 2.896-10.417-5.72zM26.933 23.862l-10.308 5.66v-6.389c0-0.345-0.28-0.625-0.625-0.625s-0.625 0.28-0.625 0.625v6.389l-10.308-5.66v-5.355l6.815 3.742c0.094 0.052 0.198 0.077 0.301 0.077 0.162 0 0.322-0.063 0.442-0.183l3.375-3.375 3.375 3.375c0.12 0.12 0.28 0.183 0.442 0.183 0.103 0 0.206-0.025 0.301-0.077l6.815-3.742zM19.927 20.928l-2.896-2.896 10.417-5.72 2.896 2.896z"></path>
            <path d="M25.3 5.011c0.164 0 0.325-0.067 0.442-0.183s0.183-0.277 0.183-0.442c0-0.165-0.067-0.326-0.183-0.442s-0.278-0.183-0.442-0.183c-0.165 0-0.326 0.067-0.442 0.183s-0.183 0.277-0.183 0.442c0 0.164 0.066 0.325 0.183 0.442s0.278 0.183 0.442 0.183z"></path>
            <path d="M16 20.433c-0.164 0-0.326 0.067-0.442 0.183s-0.183 0.277-0.183 0.442c0 0.165 0.067 0.325 0.183 0.442s0.278 0.183 0.442 0.183 0.326-0.066 0.442-0.183c0.116-0.117 0.183-0.278 0.183-0.442s-0.067-0.325-0.183-0.442c-0.116-0.116-0.278-0.183-0.442-0.183z"></path>
        </symbol>
        <symbol id="icon-empty-search" viewBox="0 0 32 32">
            <path d="M29.75 3h-27.5c-0.966 0.001-1.749 0.784-1.75 1.75v22.5c0.001 0.966 0.784 1.749 1.75 1.75h27.5c0.966-0.001 1.749-0.784 1.75-1.75v-22.5c-0.001-0.966-0.784-1.749-1.75-1.75h-0zM2.25 4h27.5c0.414 0 0.75 0.336 0.75 0.75v1.25h-29v-1.25c0-0.414 0.336-0.75 0.75-0.75h0zM29.75 28h-27.5c-0.414-0-0.75-0.336-0.75-0.75v-20.25h29v20.25c-0 0.414-0.336 0.75-0.75 0.75h-0z"></path>
            <path d="M2.5 5.5h0.5c0.276 0 0.5-0.224 0.5-0.5s-0.224-0.5-0.5-0.5v0h-0.5c-0.276 0-0.5 0.224-0.5 0.5s0.224 0.5 0.5 0.5v0z"></path>
            <path d="M4.5 5.5h0.5c0.276 0 0.5-0.224 0.5-0.5s-0.224-0.5-0.5-0.5v0h-0.5c-0.276 0-0.5 0.224-0.5 0.5s0.224 0.5 0.5 0.5v0z"></path>
            <path d="M6.5 5.5h0.5c0.276 0 0.5-0.224 0.5-0.5s-0.224-0.5-0.5-0.5v0h-0.5c-0.276 0-0.5 0.224-0.5 0.5s0.224 0.5 0.5 0.5v0z"></path>
            <path d="M8.5 12.5c-2.761 0-5 2.239-5 5s2.239 5 5 5c2.761 0 5-2.239 5-5v0c-0.003-2.76-2.24-4.997-5-5h-0zM8.5 21.5c-2.209 0-4-1.791-4-4s1.791-4 4-4c2.209 0 4 1.791 4 4v0c-0.003 2.208-1.792 3.997-4 4h-0z"></path>
            <path d="M10.354 15.646c-0.090-0.091-0.216-0.146-0.354-0.146s-0.263 0.056-0.354 0.146l-1.146 1.146-1.146-1.146c-0.090-0.091-0.215-0.146-0.354-0.146-0.276 0-0.5 0.224-0.5 0.5 0 0.138 0.056 0.263 0.146 0.354v0l1.146 1.146-1.146 1.146c-0.090 0.090-0.146 0.215-0.146 0.354 0 0.276 0.224 0.5 0.5 0.5 0.138 0 0.263-0.056 0.354-0.146l1.146-1.146 1.146 1.146c0.091 0.090 0.216 0.146 0.354 0.146 0.276 0 0.5-0.224 0.5-0.5 0-0.138-0.056-0.263-0.146-0.354l-1.146-1.146 1.146-1.146c0.091-0.090 0.146-0.215 0.146-0.354s-0.056-0.263-0.146-0.354v0z"></path>
            <path d="M28 14.5h-12c-0.276 0-0.5 0.224-0.5 0.5s0.224 0.5 0.5 0.5v0h12c0.276 0 0.5-0.224 0.5-0.5s-0.224-0.5-0.5-0.5v0z"></path>
            <path d="M16 17h4.5c0.276 0 0.5-0.224 0.5-0.5s-0.224-0.5-0.5-0.5v0h-4.5c-0.276 0-0.5 0.224-0.5 0.5s0.224 0.5 0.5 0.5v0z"></path>
            <path d="M28 17.5h-12c-0.276 0-0.5 0.224-0.5 0.5s0.224 0.5 0.5 0.5v0h12c0.276 0 0.5-0.224 0.5-0.5s-0.224-0.5-0.5-0.5v0z"></path>
            <path d="M22 19h-6c-0.276 0-0.5 0.224-0.5 0.5s0.224 0.5 0.5 0.5v0h6c0.276 0 0.5-0.224 0.5-0.5s-0.224-0.5-0.5-0.5v0z"></path>
            <path d="M24 19h-0.5c-0.276 0-0.5 0.224-0.5 0.5s0.224 0.5 0.5 0.5v0h0.5c0.276 0 0.5-0.224 0.5-0.5s-0.224-0.5-0.5-0.5v0z"></path>
            <path d="M28 16h-6c-0.276 0-0.5 0.224-0.5 0.5s0.224 0.5 0.5 0.5v0h6c0.276 0 0.5-0.224 0.5-0.5s-0.224-0.5-0.5-0.5v0z"></path>
        </symbol>
        <symbol id="icon-info" viewBox="0 0 32 32">
            <path d="M15.8 23.745c-0.619 0-1.12-0.501-1.12-1.12v-8.568c0-0.618 0.502-1.12 1.12-1.12s1.12 0.502 1.12 1.12v8.568c0 0.619-0.501 1.12-1.12 1.12zM15.8 8.513c-0.773 0-1.4 0.627-1.4 1.4s0.627 1.4 1.4 1.4c0.773 0 1.4-0.627 1.4-1.4s-0.627-1.4-1.4-1.4z"></path>
            <path fill="none" stroke="#343434" style="stroke: var(--iconColor, #343434)" stroke-linejoin="miter" stroke-linecap="butt" stroke-miterlimit="4" stroke-width="2.2857" d="M16 1.143c8.205 0 14.857 6.652 14.857 14.857s-6.652 14.857-14.857 14.857c-8.205 0-14.857-6.652-14.857-14.857s6.652-14.857 14.857-14.857z"></path>
        </symbol>
        <symbol id="icon-mail" viewBox="0 0 32 32">
            <path d="M0 6.4v19.2c0 1.767 1.433 3.2 3.2 3.2h25.6c1.767 0 3.2-1.433 3.2-3.2v-19.2c0-1.767-1.433-3.2-3.2-3.2h-25.6c-1.767 0-3.2 1.433-3.2 3.2zM28.8 9.39v16.21h-25.6v-16.21l12.8 8.533 12.8-8.533zM27.516 6.4l-11.516 7.677-11.516-7.677h23.031z"></path>
        </symbol>
        <symbol id="icon-pdf" viewBox="0 0 32 32">
            <path fill="#fff" style="fill: var(--iconColor, #fff)" d="M9.944 20.301c0-0.498-0.34-0.795-0.939-0.795-0.245 0-0.411 0.025-0.497 0.048v1.599c0.103 0.023 0.229 0.031 0.403 0.031 0.639 0 1.034-0.329 1.034-0.883z"></path>
            <path fill="#fff" style="fill: var(--iconColor, #fff)" d="M13.655 19.523c-0.268 0-0.442 0.024-0.544 0.048v3.54c0.103 0.024 0.268 0.024 0.418 0.024 1.089 0.008 1.799-0.602 1.799-1.895 0.008-1.124-0.639-1.718-1.673-1.718z"></path>
            <path fill="#fff" style="fill: var(--iconColor, #fff)" d="M8.708 1h11.84l7.452 7.557v19.25c0 1.761-1.408 3.193-3.137 3.193h-16.155c-1.73 0-3.138-1.432-3.138-3.193v-1.431h-0.306c-0.698 0-1.264-0.576-1.264-1.287v-7.803c0-0.711 0.566-1.287 1.264-1.287h0.306v-11.807c0-1.759 1.408-3.193 3.138-3.193zM8.942 18.583c-0.734 0-1.255 0.048-1.625 0.112v5.34h1.191v-1.935c0.111 0.016 0.252 0.024 0.411 0.024 0.71 0 1.317-0.177 1.728-0.57 0.316-0.305 0.489-0.755 0.489-1.285s-0.229-0.98-0.568-1.252c-0.355-0.289-0.884-0.433-1.625-0.433zM8.708 29.045h16.155c0.67 0 1.214-0.555 1.214-1.238l-0.045-18.476-4.027 0.012c-1.202 0-2.176-0.992-2.176-2.214v-4.183l-11.121 0.012c-0.67 0-1.215 0.555-1.215 1.236v11.807h15.060c0.698 0 1.264 0.576 1.264 1.287v7.803c0 0.711-0.566 1.287-1.264 1.287h-15.060v1.431c0 0.683 0.545 1.238 1.215 1.238zM11.903 18.695v5.315c0.3 0.040 0.741 0.080 1.365 0.080 1.041 0 1.893-0.225 2.453-0.698 0.513-0.441 0.884-1.156 0.884-2.192 0-0.956-0.347-1.622-0.899-2.040-0.513-0.393-1.168-0.578-2.178-0.578-0.608 0-1.183 0.040-1.625 0.112zM20.514 21.859v-0.995h-1.91v-1.237h2.043v-1.003h-3.25v5.411h1.207v-2.176h1.91z"></path>
        </symbol>
        <symbol id="icon-phone" viewBox="0 0 32 32">
            <path d="M25.131 16.468c-0.626-0.626-1.637-0.626-2.262 0l-2.55 2.55c-1.182-0.352-3.389-1.152-4.787-2.55s-2.198-3.605-2.55-4.787l2.55-2.55c0.626-0.626 0.626-1.637 0-2.262l-6.4-6.4c-0.626-0.626-1.637-0.626-2.262 0l-4.339 4.339c-0.608 0.608-0.95 1.443-0.938 2.296 0.037 2.278 0.64 10.192 6.877 16.429s14.15 6.838 16.43 6.877c0.008 0 0.037 0 0.045 0 0.845 0 1.643-0.333 2.248-0.938l4.339-4.339c0.626-0.626 0.626-1.637 0-2.262l-6.4-6.402zM24.928 27.208c-1.997-0.034-8.829-0.57-14.197-5.939-5.386-5.386-5.907-12.242-5.939-14.198l3.208-3.208 4.138 4.138-2.069 2.069c-0.382 0.381-0.546 0.931-0.435 1.459 0.038 0.184 0.978 4.547 3.634 7.203s7.019 3.595 7.203 3.634c0.533 0.114 1.078-0.051 1.459-0.434l2.070-2.069 4.138 4.138-3.21 3.208z"></path>
        </symbol>
        <symbol id="icon-phone-circle" viewBox="0 0 32 32">
            <path fill="none" stroke="#4586e8" style="stroke: var(--iconColor, #4586e8)" stroke-linejoin="miter" stroke-linecap="butt" stroke-miterlimit="4" stroke-width="1.7778" d="M31.111 16c0 8.346-6.765 15.111-15.111 15.111s-15.111-6.765-15.111-15.111c0-8.346 6.765-15.111 15.111-15.111s15.111 6.765 15.111 15.111z"></path>
            <path fill="#4586e8" style="fill: var(--iconColor, #4586e8)" d="M21.078 16.261c-0.348-0.348-0.909-0.348-1.257 0l-1.417 1.417c-0.657-0.196-1.883-0.64-2.66-1.417s-1.221-2.003-1.417-2.66l1.417-1.417c0.348-0.348 0.348-0.909 0-1.257l-3.556-3.556c-0.348-0.348-0.909-0.348-1.257 0l-2.411 2.411c-0.338 0.338-0.528 0.802-0.521 1.275 0.020 1.266 0.356 5.662 3.82 9.127s7.861 3.799 9.128 3.82c0.004 0 0.020 0 0.025 0 0.469 0 0.913-0.185 1.249-0.521l2.411-2.411c0.348-0.348 0.348-0.909 0-1.257l-3.556-3.556zM20.965 22.227c-1.109-0.019-4.905-0.316-7.887-3.299-2.992-2.992-3.282-6.801-3.3-7.888l1.782-1.782 2.299 2.299-1.149 1.149c-0.212 0.211-0.303 0.517-0.242 0.811 0.021 0.102 0.543 2.526 2.019 4.002s3.9 1.997 4.002 2.019c0.296 0.063 0.599-0.028 0.811-0.241l1.15-1.149 2.299 2.299-1.783 1.782z"></path>
        </symbol>
        <symbol id="icon-pointer" viewBox="0 0 32 32">
            <path d="M16 0c-6.618 0-12 5.409-12 12.062 0 1.908 0.569 4.105 1.69 6.529 0.894 1.938 2.149 4.031 3.722 6.221 2.676 3.723 5.418 6.523 5.724 6.831 0.233 0.234 0.539 0.357 0.863 0.357s0.631-0.129 0.869-0.357c0.306-0.308 3.049-3.108 5.724-6.831 1.573-2.191 2.822-4.283 3.722-6.221 1.114-2.425 1.684-4.622 1.684-6.529 0-6.652-5.382-12.062-12-12.062zM16 2.462c5.265 0 9.551 4.308 9.551 9.6 0 6.018-7.084 14.24-9.551 16.923-2.467-2.683-9.551-10.905-9.551-16.923 0-5.292 4.286-9.6 9.551-9.6z"></path>
            <path d="M16 18.215c3.373 0 6.122-2.763 6.122-6.154s-2.749-6.154-6.122-6.154c-3.373 0-6.122 2.763-6.122 6.154s2.749 6.154 6.122 6.154zM16 8.369c2.027 0 3.673 1.655 3.673 3.692s-1.647 3.692-3.673 3.692-3.673-1.655-3.673-3.692c0-2.037 1.647-3.692 3.673-3.692z"></path>
        </symbol>
        <symbol id="icon-search" viewBox="0 0 32 32">
            <path d="M30.934 28.351l-7.399-7.463c1.918-2.18 2.946-4.954 2.946-7.794 0-6.671-5.686-12.153-12.605-12.153s-12.605 5.482-12.605 12.153c0 6.671 5.686 12.153 12.605 12.153 2.603 0 5.070-0.727 7.193-2.18l7.467 7.529c0.342 0.33 0.753 0.462 1.165 0.462s0.822-0.132 1.165-0.462c0.685-0.594 0.685-1.585 0.069-2.246zM13.875 4.111c5.138 0 9.317 4.029 9.317 8.982s-4.179 8.982-9.317 8.982c-5.138 0-9.317-4.029-9.317-8.982s4.179-8.982 9.317-8.982z"></path>
        </symbol>
        <symbol id="icon-search-plus" viewBox="0 0 32 32">
            <path fill="#fff" style="fill: var(--iconColor, #fff)" d="M24 5.333v2.667h-2.667v2.667h2.667v2.667h2.667v-2.667h2.667v-2.667h-2.667v-2.667h-2.667zM14.888 7.43c2.449 2.449 2.753 6.231 0.911 9.011l8.201 8.201-2.025 2.025-8.201-8.201c-2.78 1.842-6.562 1.538-9.011-0.911-2.796-2.796-2.796-7.329 0-10.124s7.329-2.796 10.124 0zM12.863 15.53c1.677-1.677 1.677-4.397 0-6.075s-4.397-1.677-6.075 0c-1.677 1.677-1.677 4.397 0 6.075s4.397 1.677 6.075 0z"></path>
        </symbol>
        <symbol id="icon-shopping-cart" viewBox="0 0 32 32">
            <path d="M8 19.733l-2.8-16.267c-0.133-1.067-1.2-1.867-2.267-1.867h-2.133c-0.4 0-0.8-0.4-0.8-0.8s0.4-0.8 0.8-0.8h2.133c1.867 0 3.467 1.333 3.733 3.2l0.533 3.067h24c0.267 0 0.4 0 0.533 0.133 0 0 0.133 0.133 0.133 0.133 0.133 0 0.133 0.133 0.133 0.133 0 0.133 0 0.4 0 0.533l-2.4 7.467c-0.667 1.867-2.4 3.2-4.4 3.2h-16l0.267 1.6c0.133 1.067 1.2 1.867 2.267 1.867h16.267c0.4 0 0.8 0.4 0.8 0.8s-0.4 0.8-0.8 0.8h-16.267c-1.867 0-3.467-1.333-3.733-3.2zM28.133 14.133l2-6.4h-22.667l1.467 8.533h16.267c1.333 0 2.533-0.8 2.933-2.133zM15.2 28.533c0-2-1.6-3.467-3.467-3.467-2 0-3.467 1.6-3.467 3.467 0 2 1.6 3.467 3.467 3.467s3.467-1.6 3.467-3.467zM29.067 28.533c0-2-1.6-3.467-3.467-3.467-2 0-3.467 1.6-3.467 3.467 0 2 1.6 3.467 3.467 3.467s3.467-1.6 3.467-3.467zM11.6 30.533c-1.067 0-2-0.933-2-2s0.933-2 2-2c1.067 0 2 0.933 2 2s-0.8 2-2 2zM27.467 28.533c0 1.067-0.933 2-2 2s-2-0.933-2-2c0-1.067 0.933-2 2-2 1.2 0 2 0.8 2 2z"></path>
        </symbol>
    </defs>
</svg>
