<svg width="51" height="51" viewBox="0 0 51 51" fill="none" xmlns="http://www.w3.org/2000/svg">
<path d="M49.7446 29.5861C50.3768 25.2366 49.8155 20.7755 48.2802 16.7639M48.2802 16.7639C45.9727 10.7822 42.2375 6.52778 36.0449 3.70542C34.1342 2.85057 30.3641 1.6062 28.843 1.36029M48.2802 16.7639C47.7175 17.8025 46.1683 19.2397 43.8856 20.7595C45.5913 24.9275 46.2714 29.0538 46.0418 32.7936M43.8599 20.697C43.8577 20.6913 43.8551 20.6857 43.853 20.68C42.1368 16.5177 39.6132 12.8408 36.6343 9.87905C38.6235 8.55471 39.9832 7.37236 40.458 6.47224C40.4715 6.44706 40.4836 6.42231 40.4958 6.39756C40.4789 6.38453 40.4619 6.3715 40.4449 6.35804C40.4332 6.38279 40.4206 6.40754 40.4071 6.43273C39.9327 7.33154 38.5753 8.51216 36.5891 9.83433C33.6019 6.87606 30.1596 4.63597 26.6155 3.34463C27.7742 2.57347 28.566 1.88438 28.843 1.36029M28.843 1.36029C28.5677 1.88221 27.7155 2.5574 26.562 3.32552C24.5145 2.61125 22.7748 2.27647 21.2882 2.15706M28.843 1.36029C22.6388 0.357275 18.1165 1.67712 16.0653 2.53873M21.2882 2.15706C23.0361 2.30252 24.8023 2.7046 26.5442 3.33724C25.3545 4.12751 23.7801 5.00418 21.9817 5.87868C19.8133 3.85656 17.7641 2.64728 16.0653 2.53873M21.2882 2.15706C20.5843 2.05532 18.5543 1.98922 16.0653 2.53873M16.0653 2.53873C17.7545 2.6525 19.7942 3.86611 21.9548 5.89214C20.1542 6.76663 18.1306 7.63809 16.0449 8.41837C15.6222 5.64985 15.6009 3.57259 16.0653 2.53873ZM16.0653 2.53873C15.5896 3.57693 15.6 5.6581 16.0136 8.43009C15.9318 8.46049 15.8496 8.49132 15.7675 8.52128C13.7586 9.26291 11.9407 9.82695 10.4219 10.2004C11.6524 6.90775 13.5521 4.22216 16.0653 2.53873ZM16.0653 2.53873C13.5434 4.22434 11.6359 6.91209 10.398 10.2064C8.82054 10.5925 7.56786 10.7714 6.76303 10.7271C9.06968 7.27987 12.219 4.41365 16.0653 2.53873ZM16.0653 2.53873C12.2138 4.41278 9.06055 7.27813 6.75042 10.7253C5.94994 10.6784 5.59774 10.4084 5.81602 9.89902C8.15615 6.9985 11.2237 4.60731 14.8931 3.01289M16.0653 2.53873L14.8931 3.01289M14.8931 3.01289C9.64362 5.29119 5.62731 9.20082 3.21109 13.9011M3.21109 13.9011C3.92895 12.5065 4.78726 11.1812 5.77732 9.94766C5.55774 10.4596 5.91167 10.731 6.71563 10.7779C4.39463 14.2602 2.93194 18.3327 2.47713 22.5767C1.28184 22.5067 0.666592 22.1477 0.770077 21.4811L0.760076 21.5463C0.658766 22.2119 1.27445 22.571 2.47017 22.6409C2.0258 26.881 2.61844 31.309 4.33506 35.4714M3.21109 13.9011C2.85186 14.7407 2.45626 15.5299 2.45626 15.5299C-0.0547527 21.1989 -0.309115 27.8671 2.28842 34.167C2.40843 34.4579 2.54105 34.794 2.67105 35.078M4.33506 35.4714C3.57371 35.4271 2.99977 35.3285 2.67105 35.078M4.33506 35.4714C5.94211 35.56 8.44225 35.203 11.5916 34.4323C11.5894 34.4267 11.5868 34.421 11.5846 34.4154C9.86842 30.253 8.94576 25.8949 8.75966 21.7443C6.03907 22.4103 3.87938 22.7186 2.49104 22.6418M2.67105 35.078C4.66378 39.4214 7.8557 43.0028 11.6346 45.529C12.4551 46.0744 13.4434 46.641 14.3191 47.0887M14.3191 47.0887C16.9845 48.6366 19.9233 49.6088 22.9596 49.9319C23.3905 49.9558 23.8794 50.0083 24.6045 50.0328M14.3191 47.0887C17.0363 48.4567 18.8242 49.3979 21.8623 49.7863M23.0192 49.9384C23.1661 49.9536 23.314 49.9675 23.4614 49.9796C25.1898 50.1291 29.8676 50.0739 34.7511 48.6575M30.63 49.5731C30.1144 49.6626 29.6143 49.6227 29.0899 49.634M44.9267 41.0501C44.5406 41.5021 43.5582 42.0049 42.6812 42.589C41.7259 43.8673 37.8482 46.962 36.526 47.8465C37.3586 47.4401 37.7365 46.3136 38.1057 45.1382C36.3178 46.0062 35.23 46.5921 33.1586 47.3667C33.0773 47.3971 30.63 48.3263 30.63 48.3263C27.3859 49.2859 27.9473 49.0951 26.4237 49.2859M42.7103 42.5494C44.6513 39.9342 45.7992 36.5864 46.0379 32.8505C47.8606 31.6369 49.1524 30.5431 49.7159 29.6777C49.4181 31.6755 48.8741 33.6629 48.0667 35.5977C45.4426 41.8864 40.541 46.4217 34.7511 48.6575M34.7511 48.6575C40.5489 46.4222 45.4574 41.8851 48.0828 35.5921C48.8933 33.6494 49.458 31.523 49.7546 29.517M34.7511 48.6575C32.1964 47.8465 29.5235 44.4617 27.9173 41.6185C27.7764 41.671 27.6355 41.7231 27.4946 41.7752C24.044 43.0492 20.9208 44.0184 18.3119 44.6593M26.4237 49.2859C27.2294 49.4453 28.3143 49.6483 29.1109 49.6336M26.4237 49.2859C26.4147 49.2841 26.4056 49.2822 26.3966 49.2804M26.4237 49.2859L26.3966 49.2804M26.4237 49.2859C26.4237 49.2859 24.6045 49.7019 24.0184 49.7657C23.4324 49.8295 21.8623 49.7863 21.8623 49.7863M12.0268 45.5637C13.4095 45.6397 15.5614 45.3327 18.2711 44.6692C20.8513 47.194 23.5374 48.8061 26.3966 49.2804M24.6045 50.0328C26.0298 50.0975 27.5868 49.8211 29.0226 49.6383M24.6045 50.0328C24.0737 50.0068 22.3881 49.8535 21.8623 49.7863M38.1144 45.1095C38.6879 43.2559 38.6905 40.546 38.1231 37.2586C35.0303 38.761 31.554 40.2581 27.9712 41.5981M36.6034 9.89989C39.5792 12.8638 42.1007 16.5416 43.8173 20.7039C43.8195 20.7095 43.8221 20.7152 43.8243 20.7208C41.4494 22.2988 38.3061 24.0486 34.7159 25.7946C34.7138 25.7889 34.7111 25.7833 34.709 25.7776C32.9928 21.6153 30.9227 17.6857 28.7351 14.2828C31.8366 12.7748 34.552 11.2629 36.6034 9.89989ZM22.857 30.8466C21.1408 26.6843 19.6585 22.5033 18.4972 18.6614C22.0939 17.3162 25.5837 15.813 28.6886 14.3054C30.8714 17.7105 32.9384 21.6414 34.6551 25.8037C34.6572 25.8093 34.6598 25.815 34.662 25.8206C31.0675 27.5662 27.0277 29.306 22.8644 30.8635C22.8618 30.8579 22.8592 30.8523 22.857 30.8466ZM27.8929 41.5755C27.752 41.628 27.6107 41.6806 27.4699 41.7327C24.014 43.0084 20.886 43.9793 18.2732 44.6211C15.6918 42.0783 13.3912 38.6424 11.665 34.4835C14.697 33.7389 18.3263 32.6125 22.3361 31.1319C22.5 31.0715 22.6635 31.0107 22.827 30.9495C24.5462 35.1106 26.2854 38.7245 27.8929 41.5755ZM22.7944 30.8701C22.7965 30.8757 22.7992 30.8813 22.8013 30.887C22.6378 30.9482 22.4739 31.009 22.3104 31.0694C18.3002 32.5496 14.6709 33.6764 11.639 34.421C11.6368 34.4154 11.6342 34.4097 11.632 34.4041C9.91581 30.2418 8.99055 25.884 8.80053 21.7347C11.4194 21.0917 14.5548 20.1182 18.0189 18.8394C18.1606 18.7873 18.3019 18.7348 18.4433 18.6818C19.599 22.5254 21.0782 26.7077 22.7944 30.8701ZM18.2319 44.631C15.5179 45.2954 13.363 45.6032 11.9781 45.5264C8.75923 43.0753 6.09125 39.6923 4.36072 35.5339C5.96776 35.6229 8.46791 35.266 11.6172 34.4948C13.3434 38.6537 15.6466 42.0892 18.2319 44.631ZM22.89 30.9261C27.0537 29.369 31.0935 27.6287 34.6877 25.8836C36.3991 30.0481 37.5417 33.9165 38.1148 37.2095C35.0172 38.7136 31.5357 40.2134 27.9473 41.5555C26.345 38.7023 24.6088 35.0871 22.89 30.9261ZM26.5976 3.35678C30.1365 4.6516 33.5746 6.89473 36.5586 9.85517C34.5103 11.216 31.7992 12.7257 28.7025 14.2311C26.5111 10.8291 24.2027 7.9568 22.0148 5.9095C23.821 5.0311 25.4023 4.15052 26.5976 3.35678ZM21.9874 5.92253C24.1675 7.97374 26.4689 10.8495 28.656 14.2537C25.5558 15.7591 22.0713 17.2602 18.4798 18.6032C17.3197 14.76 16.4814 11.259 16.0509 8.45962C18.1458 7.6763 20.1786 6.80094 21.9874 5.92253ZM10.4028 10.2499C11.9281 9.87514 13.7543 9.3085 15.7722 8.56339C15.8548 8.533 15.937 8.50217 16.0192 8.47178C16.4405 11.2742 17.271 14.7782 18.4254 18.6236C18.2846 18.6761 18.1432 18.7287 18.0019 18.7808C14.543 20.0578 11.4124 21.0291 8.79749 21.6718C8.61444 17.519 9.16838 13.5768 10.4028 10.2499ZM6.72781 10.7787C7.53655 10.8235 8.79445 10.6437 10.3789 10.2559C9.13751 13.5842 8.57791 17.5281 8.75662 21.6822C6.04038 22.347 3.88373 22.6548 2.49757 22.5784C2.95064 18.3336 4.41028 14.2611 6.72781 10.7787ZM42.6929 42.5612C41.5063 43.3497 39.9353 44.2242 38.1413 45.0965C38.7227 43.2394 38.7322 40.526 38.1696 37.2364C41.2589 35.7345 43.9638 34.2282 46.0074 32.8705C45.7718 36.6042 44.6287 39.9494 42.6929 42.5612ZM46.0109 32.814C43.9643 34.174 41.2554 35.682 38.1613 37.1865C37.593 33.8913 36.453 30.0212 34.7416 25.8571C38.3318 24.1116 41.475 22.3613 43.8499 20.7834C45.5557 24.9509 46.2375 29.0763 46.0109 32.814Z" stroke="#74798A" stroke-width="0.4"/>
<path d="M45.9841 12.151L44.8705 10.5996C44.2832 9.90018 43.4838 8.97566 42.8532 8.31776C46.6174 13.0868 22.23 24.1303 11.9796 25.3044C11.7107 25.3332 11.4698 25.3873 11.2519 25.4493C11.2116 25.4553 11.176 25.4656 11.1358 25.4717C9.82526 25.7819 9.01486 27.073 9.32955 28.3574C9.62837 29.585 10.8493 30.3641 12.1011 30.1579L12.1369 30.152C28.3747 27.2607 48.5574 16.6427 45.9841 12.151Z" fill="#4586E8"/>
<path d="M48.7401 18.2793L48.4695 17.5138C49.6299 22.5582 34.6704 29.7609 21.9731 32.8147C21.8304 32.8471 21.7013 32.8833 21.577 32.9237C21.4963 32.9315 21.4159 32.948 21.3356 32.9646C20.2079 33.2319 19.5114 34.3418 19.7828 35.4515C20.0486 36.5349 21.1436 37.2089 22.2462 36.9868L22.2104 36.9926C38.2874 32.943 50.0818 26.2684 49.6713 22.0402C49.2068 19.7559 49.1832 19.6201 48.7401 18.2793Z" fill="#4586E8"/>
<path d="M38.5731 5.05072C37.646 4.5154 36.3888 3.83928 35.424 3.37172L34.6587 3.04594C38.7978 5.04143 32.1577 9.4553 26.1174 11.9513C25.9271 12.0297 25.6351 12.1521 25.3315 12.3192C24.466 12.6153 23.9499 13.5148 24.1716 14.4059C24.405 15.3582 25.3792 15.9445 26.351 15.7146C26.4624 15.6879 26.569 15.6526 26.6707 15.6087C26.8087 15.5721 26.9551 15.5219 27.1192 15.4622C38.4854 10.716 41.0249 6.74091 38.5731 5.05072Z" fill="#4586E8"/>
<path d="M30.8872 1.66627C29.96 1.23686 27.399 1.02948 26.8157 1.07567C26.8163 1.08889 26.8172 1.11091 26.8177 1.12413C29.4617 1.80908 27.6173 3.67256 25.2352 5.05522C22.6686 6.54701 19.5036 7.50753 19.3703 7.54835C19.148 7.61491 18.8766 7.69233 18.6284 7.78644C18.6239 7.78662 18.6239 7.78662 18.6195 7.78681C17.9286 7.95218 17.5023 8.63174 17.6656 9.30897C17.8228 9.94674 18.443 10.3535 19.0965 10.2647C19.101 10.2646 19.1057 10.2688 19.1102 10.2686C19.1235 10.2636 19.1324 10.2633 19.1457 10.2583C19.1725 10.2528 19.1948 10.2474 19.2216 10.2419C19.3062 10.2208 19.3862 10.1954 19.4613 10.1614C29.1003 7.17237 33.8065 3.01499 30.8872 1.66627Z" fill="#4586E8"/>
<path d="M35.8803 37.103C35.69 37.1814 35.5265 37.2544 35.3856 37.3308C34.6756 37.5764 34.2517 38.3132 34.4307 39.0428C34.5666 39.602 35.0157 40.0071 35.5516 40.1217C35.634 40.1536 35.7426 40.1668 35.8817 40.1566C35.9942 40.1564 36.1062 40.1429 36.2221 40.116L36.2266 40.1158C36.3161 40.1033 36.4094 40.073 36.5105 40.0158C46.9122 35.6714 48.9408 32.6133 49.4042 31.0981L49.5246 30.6386C49.625 29.1253 49.6913 28.1266 49.7907 26.6286C48.8697 31.0927 38.9921 35.8401 35.8803 37.103Z" fill="#4586E8"/>
<path d="M29.1782 45.9488C29.1649 45.9537 29.1514 45.9543 29.1426 45.9591C29.1248 45.9642 29.1068 45.965 29.089 45.9701C28.6566 46.0718 28.3908 46.4976 28.4938 46.917C28.5967 47.332 29.0125 47.5884 29.4365 47.5002C29.5801 47.4899 29.7722 47.4555 30.0262 47.392C37.633 45.3255 43.605 42.3778 46.0017 39.5118L46.9106 38.2077C47.2809 37.5879 47.7824 36.1364 48.1204 35.5002C45.2646 40.093 34.4815 44.56 29.1782 45.9488Z" fill="#4586E8"/>
<path d="M15.8961 2.34501C17.839 1.62497 19.8055 1.18384 21.7584 1C20.8783 1.21042 19.9991 1.47492 19.1252 1.79889C6.76245 6.37957 0.809424 19.384 4.91243 32.5273C9.01543 45.6705 22.3723 53.1005 34.7346 48.5193C35.6085 48.1954 36.3023 47.9262 37.1179 47.5085C35.2113 48.5193 36.0723 48.5046 33.3047 49.5302C20.6396 54.2235 5.52078 47.3245 1.3177 33.8592C-2.88539 20.3938 3.231 7.03788 15.8961 2.34501Z" fill="#74798A"/>
</svg>
