<svg width="608" height="608" viewBox="0 0 608 608" fill="none" xmlns="http://www.w3.org/2000/svg">
<rect opacity="0.8" width="608" height="608" rx="8" fill="#F2F5F8"/>
<g opacity="0.1">
<path d="M114.299 245.588C119.564 245.588 124.151 246.457 128.06 248.194C131.969 249.931 134.981 252.428 137.099 255.685C139.216 258.942 140.274 262.742 140.274 267.085C140.274 271.428 139.216 275.228 137.099 278.485C134.981 281.742 131.969 284.239 128.06 285.977C124.151 287.714 119.564 288.582 114.299 288.582H106.074V302.588H86.8571V245.588H114.299ZM113.077 273.762C115.683 273.762 117.637 273.192 118.94 272.052C120.243 270.858 120.894 269.202 120.894 267.085C120.894 264.968 120.243 263.339 118.94 262.199C117.637 261.005 115.683 260.408 113.077 260.408H106.074V273.762H113.077Z" fill="#30609A"/>
<path d="M171.005 288.257H165.794V302.588H146.577V245.588H174.018C179.284 245.588 183.871 246.457 187.78 248.194C191.688 249.931 194.701 252.428 196.818 255.685C198.935 258.942 199.994 262.742 199.994 267.085C199.994 271.157 199.071 274.712 197.225 277.752C195.38 280.792 192.72 283.208 189.245 284.999L201.215 302.588H180.695L171.005 288.257ZM180.614 267.085C180.614 264.968 179.962 263.339 178.66 262.199C177.357 261.005 175.402 260.408 172.797 260.408H165.794V273.762H172.797C175.402 273.762 177.357 273.192 178.66 272.052C179.962 270.858 180.614 269.202 180.614 267.085Z" fill="#30609A"/>
<path d="M246.092 292.654H224.432L220.605 302.588H201.062L225.979 245.588H244.871L269.788 302.588H249.919L246.092 292.654ZM240.799 278.811L235.262 264.479L229.725 278.811H240.799Z" fill="#30609A"/>
<path d="M301.537 303.891C295.511 303.891 290.082 302.642 285.251 300.145C280.419 297.594 276.619 294.065 273.851 289.559C271.137 284.999 269.779 279.842 269.779 274.088C269.779 268.334 271.137 263.204 273.851 258.698C276.619 254.138 280.419 250.609 285.251 248.112C290.082 245.561 295.511 244.285 301.537 244.285C307.074 244.285 312.014 245.262 316.357 247.217C320.699 249.171 324.282 251.994 327.105 255.685L314.972 266.515C311.444 262.064 307.291 259.838 302.514 259.838C298.497 259.838 295.267 261.141 292.824 263.747C290.381 266.298 289.159 269.745 289.159 274.088C289.159 278.431 290.381 281.905 292.824 284.511C295.267 287.062 298.497 288.338 302.514 288.338C307.291 288.338 311.444 286.112 314.972 281.661L327.105 292.491C324.282 296.182 320.699 299.005 316.357 300.959C312.014 302.914 307.074 303.891 301.537 303.891Z" fill="#30609A"/>
<path d="M344.633 260.489H327.94V245.588H380.543V260.489H363.85V302.588H344.633V260.489Z" fill="#30609A"/>
<path d="M385.535 245.588H404.752V302.588H385.535V245.588Z" fill="#30609A"/>
<path d="M443.48 303.891C437.454 303.891 432.026 302.642 427.194 300.145C422.363 297.594 418.563 294.065 415.794 289.559C413.08 284.999 411.723 279.842 411.723 274.088C411.723 268.334 413.08 263.204 415.794 258.698C418.563 254.138 422.363 250.609 427.194 248.112C432.026 245.561 437.454 244.285 443.48 244.285C449.017 244.285 453.957 245.262 458.3 247.217C462.643 249.171 466.226 251.994 469.048 255.685L456.916 266.515C453.387 262.064 449.234 259.838 444.457 259.838C440.44 259.838 437.21 261.141 434.767 263.747C432.324 266.298 431.103 269.745 431.103 274.088C431.103 278.431 432.324 281.905 434.767 284.511C437.21 287.062 440.44 288.338 444.457 288.338C449.234 288.338 453.387 286.112 456.916 281.661L469.048 292.491C466.226 296.182 462.643 299.005 458.3 300.959C453.957 302.914 449.017 303.891 443.48 303.891Z" fill="#30609A"/>
<path d="M521.988 288.094V302.588H474.597V245.588H520.93V260.082H493.488V266.759H517.591V280.602H493.488V288.094H521.988Z" fill="#30609A"/>
<path d="M210.993 310.731V367.731H191.776V346.722H174.024V367.731H154.807V310.731H174.024V330.925H191.776V310.731H210.993Z" fill="#30609A"/>
<path d="M250.136 369.034C244.002 369.034 238.492 367.758 233.606 365.207C228.721 362.655 224.894 359.127 222.125 354.621C219.356 350.061 217.972 344.931 217.972 339.231C217.972 333.531 219.356 328.428 222.125 323.922C224.894 319.362 228.721 315.807 233.606 313.255C238.492 310.704 244.002 309.428 250.136 309.428C256.271 309.428 261.781 310.704 266.666 313.255C271.552 315.807 275.379 319.362 278.148 323.922C280.916 328.428 282.301 333.531 282.301 339.231C282.301 344.931 280.916 350.061 278.148 354.621C275.379 359.127 271.552 362.655 266.666 365.207C261.781 367.758 256.271 369.034 250.136 369.034ZM250.136 353.481C252.525 353.481 254.669 352.911 256.569 351.771C258.524 350.577 260.071 348.921 261.211 346.804C262.351 344.632 262.921 342.108 262.921 339.231C262.921 336.354 262.351 333.857 261.211 331.739C260.071 329.568 258.524 327.912 256.569 326.772C254.669 325.578 252.525 324.981 250.136 324.981C247.748 324.981 245.576 325.578 243.622 326.772C241.722 327.912 240.202 329.568 239.062 331.739C237.922 333.857 237.352 336.354 237.352 339.231C237.352 342.108 237.922 344.632 239.062 346.804C240.202 348.921 241.722 350.577 243.622 351.771C245.576 352.911 247.748 353.481 250.136 353.481Z" fill="#30609A"/>
<path d="M316.554 369.034C307.814 369.034 301.001 366.672 296.116 361.949C291.23 357.227 288.787 350.604 288.787 342.081V310.731H308.004V341.511C308.004 345.691 308.737 348.731 310.203 350.631C311.723 352.531 313.894 353.481 316.717 353.481C319.54 353.481 321.684 352.531 323.15 350.631C324.67 348.731 325.43 345.691 325.43 341.511V310.731H344.321V342.081C344.321 350.604 341.878 357.227 336.993 361.949C332.107 366.672 325.294 369.034 316.554 369.034Z" fill="#30609A"/>
<path d="M374.383 369.034C369.66 369.034 365.046 368.518 360.54 367.487C356.089 366.401 352.424 364.962 349.547 363.171L355.736 349.165C358.45 350.739 361.49 352.015 364.856 352.992C368.222 353.915 371.452 354.377 374.546 354.377C377.206 354.377 379.106 354.132 380.246 353.644C381.386 353.101 381.956 352.314 381.956 351.282C381.956 350.088 381.196 349.192 379.676 348.595C378.21 347.998 375.767 347.347 372.347 346.641C367.95 345.718 364.286 344.741 361.354 343.709C358.423 342.624 355.872 340.887 353.7 338.498C351.529 336.055 350.443 332.771 350.443 328.645C350.443 325.062 351.447 321.805 353.456 318.874C355.464 315.942 358.45 313.635 362.413 311.952C366.43 310.269 371.289 309.428 376.989 309.428C380.897 309.428 384.724 309.862 388.47 310.731C392.27 311.545 395.609 312.767 398.486 314.395L392.704 328.319C387.113 325.497 381.82 324.085 376.826 324.085C371.886 324.085 369.416 325.279 369.416 327.668C369.416 328.808 370.149 329.677 371.614 330.274C373.08 330.817 375.496 331.414 378.862 332.065C383.204 332.879 386.869 333.829 389.854 334.915C392.84 335.947 395.419 337.657 397.59 340.045C399.816 342.434 400.929 345.691 400.929 349.817C400.929 353.399 399.924 356.657 397.916 359.588C395.907 362.465 392.894 364.772 388.877 366.509C384.914 368.192 380.083 369.034 374.383 369.034Z" fill="#30609A"/>
<path d="M454.039 353.237V367.731H406.647V310.731H452.98V325.225H425.539V331.902H449.641V345.745H425.539V353.237H454.039Z" fill="#30609A"/>
</g>
</svg>
